<svg xmlns="http://www.w3.org/2000/svg" width="739" height="951" viewBox="0 0 739 951">
<g>
<path d="M 189.00 469.69 L 189.00 548.00 L 175.20 548.00 C165.80,548.00 161.02,547.62 160.20,546.80 C159.28,545.88 159.00,519.43 159.00,433.82 L 159.00 322.04 L 161.25 321.48 C162.49,321.17 169.12,321.05 176.00,321.21 L 188.50 321.50 L 188.76 376.75 C188.96,419.95 189.29,432.00 190.26,431.99 C190.94,431.98 216.48,407.00 247.00,376.49 L 302.50 321.00 L 321.25 321.00 C335.93,321.00 340.00,321.28 340.00,322.30 C340.00,323.01 328.86,334.37 315.25,347.55 C275.41,386.11 251.70,409.34 249.69,411.77 L 247.82 414.05 L 255.87 424.77 C260.30,430.67 265.23,437.30 266.83,439.50 C278.38,455.39 288.51,469.13 291.26,472.64 C293.04,474.92 296.30,479.33 298.50,482.44 C300.70,485.56 306.10,492.97 310.50,498.93 C345.15,545.79 345.20,545.87 344.35,547.24 C344.09,547.66 335.66,548.00 325.62,548.00 C324.06,548.00 322.63,548.01 321.32,548.01 C312.74,548.04 309.04,548.06 306.37,546.41 C303.93,544.90 302.35,542.02 298.70,536.50 C296.15,532.65 290.22,524.10 285.52,517.50 C275.08,502.84 269.98,495.56 268.00,492.51 C267.17,491.23 262.71,484.86 258.07,478.34 C244.09,458.69 231.64,441.00 229.19,437.33 C227.93,435.43 226.53,434.01 226.08,434.19 C225.64,434.36 217.11,442.42 207.14,452.09 ZM 388.50 544.05 C385.75,544.60 379.90,545.30 375.50,545.61 L 367.50 546.17 L 361.93 540.34 C357.03,535.19 348.00,523.76 348.00,522.69 C348.00,522.48 354.92,521.99 363.39,521.62 C375.92,521.06 380.22,520.45 386.62,518.37 C397.70,514.75 401.10,512.79 406.20,507.12 C412.35,500.28 415.00,492.69 415.00,481.88 C415.00,469.34 411.62,461.26 403.31,453.97 C393.95,445.75 383.82,443.87 345.78,443.29 L 319.06 442.88 L 313.53 436.77 C310.49,433.41 308.00,430.10 308.00,429.41 C308.00,428.72 310.81,425.65 314.25,422.58 L 320.50 417.01 L 341.00 417.00 C364.19,416.98 375.79,415.93 385.41,412.95 C394.50,410.15 401.96,402.77 404.36,394.22 C408.61,379.06 403.96,363.09 393.10,355.57 C387.30,351.55 379.76,350.05 361.66,349.32 C349.86,348.85 345.69,348.34 345.31,347.35 C344.75,345.90 349.05,337.79 355.18,328.75 L 359.07 323.00 L 368.79 323.01 C402.04,323.03 422.83,335.94 432.49,362.56 C434.51,368.15 435.00,371.34 435.00,379.08 C435.00,397.70 427.56,411.75 411.75,422.97 C409.14,424.82 407.00,426.70 407.00,427.14 C407.00,427.59 409.14,428.91 411.75,430.08 C414.36,431.25 418.07,432.94 419.99,433.83 C421.90,434.72 426.46,438.39 430.10,441.98 C443.62,455.27 448.54,472.74 444.97,494.73 C443.07,506.45 435.86,520.22 427.34,528.41 C421.30,534.21 408.58,540.51 400.00,541.96 C396.42,542.56 391.25,543.50 388.50,544.05 ZM 504.41 544.88 C499.09,545.86 448.70,546.37 447.79,545.45 C447.40,545.07 448.08,543.35 449.30,541.63 C452.73,536.76 453.78,534.93 456.67,528.72 C458.45,524.91 460.06,522.81 461.43,522.54 C462.57,522.31 469.45,521.89 476.72,521.60 C506.94,520.39 521.73,514.78 533.65,500.00 C541.04,490.84 544.95,481.02 548.95,461.55 C551.52,449.06 551.79,421.20 549.47,408.00 C546.67,392.05 544.24,385.69 536.68,374.53 C525.23,357.65 510.31,350.09 488.16,349.95 C480.37,349.90 459.33,347.75 458.72,346.94 C458.53,346.70 456.85,344.02 454.99,341.00 C451.72,335.69 449.11,332.10 444.96,327.16 C443.88,325.87 443.25,324.41 443.56,323.91 C444.33,322.66 491.88,322.75 503.31,324.03 C513.94,325.22 529.59,330.30 537.64,335.18 C558.63,347.90 573.92,372.86 579.68,403.80 C581.94,415.94 581.95,449.97 579.69,462.88 C576.27,482.49 567.95,502.35 557.85,515.00 C544.34,531.93 529.41,540.28 504.41,544.88 ZM 254.42 643.13 C253.74,644.22 248.93,644.24 247.22,643.15 C246.47,642.68 246.22,641.60 246.61,640.57 C247.89,637.24 244.82,636.95 241.27,640.07 C237.25,643.59 233.78,643.79 229.35,640.75 C222.11,635.80 221.07,620.11 227.49,613.01 C230.93,609.21 239.91,609.59 242.30,613.65 C242.74,614.39 243.94,615.00 244.97,615.00 C246.70,615.00 246.80,614.32 246.28,605.57 L 245.71 596.14 L 249.43 595.45 C251.58,595.04 253.57,595.17 254.15,595.75 C255.19,596.79 255.45,641.47 254.42,643.13 ZM 524.00 642.25 C514.80,646.84 504.65,642.33 501.16,632.10 C498.26,623.60 501.95,614.51 509.93,610.49 C514.13,608.38 522.21,609.04 525.99,611.80 C534.88,618.31 533.64,637.43 524.00,642.25 ZM 383.01 641.75 C376.18,646.40 364.77,643.12 361.08,635.47 C359.04,631.23 358.53,623.57 360.04,619.76 C365.04,607.09 380.19,605.24 388.38,616.29 C390.03,618.51 390.44,620.56 390.44,626.50 C390.44,634.77 389.05,637.64 383.01,641.75 ZM 345.13 642.59 C337.44,645.81 328.80,643.46 324.01,636.85 C319.50,630.63 320.22,629.00 327.47,629.00 C329.91,629.00 331.21,629.67 332.44,631.55 C334.60,634.84 337.76,635.98 341.30,634.75 C343.77,633.89 344.07,633.33 343.80,630.17 C343.48,626.32 343.38,626.25 332.20,622.93 C329.60,622.15 326.68,620.26 324.84,618.16 C322.16,615.11 321.84,614.13 322.27,610.26 C322.86,605.02 326.72,600.45 331.70,599.07 C336.36,597.79 345.03,598.74 348.00,600.86 C351.48,603.35 354.26,608.98 352.84,610.69 C350.82,613.12 345.67,612.26 342.81,609.00 C338.65,604.26 331.39,605.66 332.16,611.06 C332.53,613.74 336.44,616.06 343.92,618.02 C346.35,618.66 349.66,620.51 351.29,622.13 C353.99,624.84 354.20,625.54 353.79,630.55 C353.27,636.73 350.76,640.23 345.13,642.59 ZM 145.13 642.58 C140.98,644.33 134.52,644.29 130.43,642.49 C126.87,640.93 120.35,634.04 118.96,630.38 C117.71,627.11 117.73,616.43 118.99,612.04 C120.33,607.37 127.56,600.20 132.17,598.95 C136.72,597.73 145.82,599.00 149.41,601.35 C152.05,603.08 156.00,609.74 156.00,612.46 C156.00,613.57 154.97,614.00 152.35,614.00 C149.37,614.00 148.01,613.26 145.00,610.00 C140.54,605.17 136.69,604.71 132.20,608.49 C125.08,614.47 126.16,630.44 133.95,634.47 C138.11,636.63 142.55,635.45 145.67,631.36 C147.81,628.56 148.89,628.00 152.12,628.00 C154.97,628.00 156.00,628.41 156.00,629.57 C156.00,633.57 150.29,640.41 145.13,642.58 ZM 207.68 642.94 C198.67,646.34 189.17,641.06 186.97,631.42 C183.91,618.02 193.08,607.10 205.44,609.42 C210.74,610.42 214.69,614.33 216.63,620.51 C219.10,628.34 218.27,629.00 205.88,629.00 C196.94,629.00 196.00,629.18 196.00,630.85 C196.00,635.21 202.61,637.52 206.56,634.53 C207.63,633.72 210.19,633.05 212.25,633.03 C215.22,633.01 216.00,633.38 216.00,634.81 C216.00,637.06 211.44,641.52 207.68,642.94 ZM 546.00 633.25 L 546.00 644.00 L 543.12 644.00 C538.30,644.00 537.92,642.61 538.22,625.87 L 538.50 610.50 L 542.34 610.18 C545.04,609.96 546.54,610.36 547.40,611.53 C548.53,613.07 548.88,613.04 552.06,611.10 C558.09,607.43 564.79,608.87 567.34,614.39 C569.19,618.40 570.38,640.84 568.84,642.69 C568.24,643.41 566.24,644.00 564.38,644.00 L 561.00 644.00 L 561.00 632.17 C561.00,621.11 560.85,620.21 558.69,618.17 C555.08,614.78 550.43,615.25 547.99,619.25 C546.34,621.96 546.01,624.30 546.00,633.25 ZM 593.68 642.93 C590.09,644.30 585.07,644.25 582.50,642.84 C578.92,640.86 575.00,636.67 575.00,634.81 C575.00,632.24 582.30,632.30 585.60,634.90 C588.75,637.37 592.00,636.59 592.00,633.35 C592.00,632.02 591.44,630.78 590.75,630.59 C578.16,627.05 576.00,625.45 576.00,619.61 C576.00,616.19 576.59,614.81 579.07,612.44 C581.74,609.87 582.87,609.50 587.99,609.50 C594.62,609.50 599.25,612.04 599.84,615.99 C600.45,620.13 594.69,621.52 591.50,618.00 C589.36,615.63 585.18,615.36 584.35,617.54 C583.72,619.17 586.56,623.00 588.40,623.01 C589.01,623.01 591.22,623.49 593.31,624.07 C598.87,625.61 601.00,628.17 601.00,633.33 C601.00,638.08 598.77,641.01 593.68,642.93 ZM 475.84 643.12 C473.75,644.44 467.78,644.07 464.78,642.44 C460.77,640.27 460.00,638.05 460.00,628.65 C460.00,618.87 459.50,617.00 456.91,617.00 C455.73,617.00 454.80,616.05 454.39,614.43 C453.68,611.58 454.49,610.37 457.50,609.84 C459.15,609.54 459.55,608.57 459.80,604.24 L 460.10 599.00 L 469.00 599.00 L 469.02 603.25 C469.03,608.61 469.77,609.74 473.50,610.16 C476.09,610.45 476.50,610.91 476.50,613.50 C476.50,616.17 476.11,616.56 473.00,617.00 L 469.50 617.50 L 469.50 635.50 L 473.00 636.63 C476.75,637.83 478.36,641.52 475.84,643.12 ZM 435.34 640.72 C431.62,644.23 428.93,644.72 425.11,642.60 C420.84,640.24 420.07,637.40 420.04,623.75 L 420.00 611.00 L 428.00 611.00 L 428.00 622.43 C428.00,631.48 428.33,634.18 429.57,635.43 C432.05,637.91 436.54,637.40 438.93,634.37 C440.72,632.08 441.00,630.34 441.00,621.37 L 441.00 611.00 L 448.00 611.00 L 448.01 624.75 C448.02,632.31 448.30,639.51 448.63,640.75 C449.18,642.82 448.90,643.00 445.12,643.00 C441.43,643.00 441.00,642.75 441.00,640.58 C441.00,637.00 439.23,637.04 435.34,640.72 ZM 300.00 641.00 C300.00,643.76 299.72,644.00 296.50,644.00 C294.58,644.00 293.00,643.55 293.00,643.00 C293.00,642.45 292.37,642.00 291.61,642.00 C290.85,642.00 289.28,641.21 288.13,640.25 C286.32,638.74 286.02,637.32 285.93,630.00 C285.79,619.09 285.27,617.05 282.37,615.95 C279.20,614.75 279.37,612.41 282.75,610.78 C285.14,609.62 285.50,608.87 285.50,604.98 C285.50,600.54 285.53,600.50 289.20,600.19 L 292.89 599.89 L 293.20 605.19 C293.49,610.38 293.58,610.51 296.75,610.81 C299.42,611.07 300.00,611.55 300.00,613.50 C300.00,615.45 299.42,615.93 296.75,616.19 L 293.50 616.50 L 293.21 625.38 C292.90,634.86 294.13,638.00 298.15,638.00 C299.54,638.00 300.00,638.75 300.00,641.00 ZM 412.00 640.50 C412.00,642.73 411.59,643.00 408.25,642.96 C402.80,642.90 399.20,640.61 398.49,636.74 C398.04,634.30 398.42,598.64 398.91,597.25 C398.96,597.11 400.35,597.00 402.00,597.00 L 405.00 597.00 L 405.00 615.50 C405.00,632.67 405.14,634.14 407.00,636.00 C408.10,637.10 409.67,638.00 410.50,638.00 C411.43,638.00 412.00,638.94 412.00,640.50 ZM 171.03 633.25 L 171.00 644.00 L 168.25 643.96 C166.74,643.94 165.05,643.38 164.50,642.71 C163.88,641.96 163.69,635.79 164.00,626.50 L 164.50 611.50 L 167.75 611.32 C170.26,611.18 171.00,611.54 171.00,612.90 C171.00,615.89 172.16,616.05 175.22,613.47 C179.37,609.98 182.00,610.18 182.00,614.00 C182.00,616.37 181.56,617.00 179.93,617.00 C177.40,617.00 173.92,618.78 172.28,620.91 C171.50,621.93 171.05,626.38 171.03,633.25 ZM 492.00 610.87 L 492.00 644.00 L 489.02 644.00 C485.10,644.00 484.86,642.81 485.21,625.50 L 485.50 611.50 ZM 271.10 643.75 C271.05,643.89 269.65,644.00 268.00,644.00 L 265.00 644.00 L 265.00 611.00 L 267.88 611.00 C270.03,611.00 270.92,611.58 271.37,613.25 C271.83,614.98 271.59,642.55 271.10,643.75 ZM 234.07 633.37 C235.55,635.25 237.07,636.00 239.40,636.00 C243.54,636.00 245.53,632.65 245.43,625.87 C245.34,620.17 243.02,617.00 238.92,617.00 C232.71,617.00 229.56,627.63 234.07,633.37 ZM 370.54 634.04 C375.03,639.00 381.50,634.55 381.50,626.50 C381.50,618.32 375.02,614.00 370.40,619.11 C367.87,621.92 367.95,631.18 370.54,634.04 ZM 511.97 633.25 C516.28,638.71 522.00,636.10 522.74,628.33 C523.38,621.64 521.10,617.00 517.17,617.00 C512.53,617.00 510.74,619.09 510.25,625.10 C509.88,629.55 510.18,630.98 511.97,633.25 ZM 492.75 601.72 C488.98,604.64 484.00,602.89 484.00,598.64 C484.00,595.68 485.81,594.00 489.00,594.00 C490.43,594.00 492.14,594.54 492.80,595.20 C494.37,596.77 494.34,600.49 492.75,601.72 ZM 196.00 621.15 C196.00,622.74 196.83,623.00 202.00,623.00 C207.26,623.00 208.00,622.76 208.00,621.07 C208.00,616.52 201.50,614.33 197.83,617.65 C196.82,618.57 196.00,620.14 196.00,621.15 ZM 271.58 599.56 C270.74,602.90 265.52,603.08 264.66,599.80 C263.93,597.02 265.57,595.00 268.56,595.00 C271.45,595.00 272.37,596.40 271.58,599.56 Z" fill="rgb(5,5,6)"/>
<path d="M 413.00 640.22 C413.00,642.93 412.85,643.00 407.45,643.00 C402.90,643.00 401.47,642.56 399.45,640.55 C397.00,638.10 397.00,638.05 397.00,617.15 C397.00,598.98 397.21,596.13 398.58,595.61 C401.19,594.60 404.69,594.92 405.74,596.25 C406.33,596.99 406.58,603.00 406.36,611.00 C406.16,618.42 406.25,626.92 406.58,629.87 C407.11,634.65 407.50,635.36 410.09,636.34 C412.34,637.19 413.00,638.07 413.00,640.22 ZM 412.00 640.50 C412.00,638.94 411.43,638.00 410.50,638.00 C409.67,638.00 408.10,637.10 407.00,636.00 C405.14,634.14 405.00,632.67 405.00,615.50 L 405.00 597.00 L 402.00 597.00 C400.35,597.00 398.96,597.11 398.91,597.25 C398.42,598.64 398.04,634.30 398.49,636.74 C399.20,640.61 402.80,642.90 408.25,642.96 C411.59,643.00 412.00,642.73 412.00,640.50 ZM 300.00 641.00 C300.00,638.75 299.54,638.00 298.15,638.00 C294.13,638.00 292.90,634.86 293.21,625.38 L 293.50 616.50 L 296.75 616.19 C299.42,615.93 300.00,615.45 300.00,613.50 C300.00,611.55 299.42,611.07 296.75,610.81 C293.58,610.51 293.49,610.38 293.20,605.19 L 292.89 599.89 L 289.20 600.19 C285.53,600.50 285.50,600.54 285.50,604.98 C285.50,608.87 285.14,609.62 282.75,610.78 C279.37,612.41 279.20,614.75 282.37,615.95 C285.27,617.05 285.79,619.09 285.93,630.00 C286.02,637.32 286.32,638.74 288.13,640.25 C289.28,641.21 290.85,642.00 291.61,642.00 C292.37,642.00 293.00,642.45 293.00,643.00 C293.00,643.35 293.62,643.65 294.57,643.83 C289.94,644.02 289.05,643.68 286.96,641.46 C284.73,639.09 284.47,637.87 284.16,628.48 C283.84,618.74 283.69,618.10 281.66,617.81 C279.99,617.57 279.43,616.71 279.21,614.00 C278.97,611.16 279.34,610.31 281.21,609.50 C283.06,608.69 283.56,607.59 283.80,603.75 L 284.11 599.00 L 295.00 599.00 L 295.00 604.00 C295.00,607.25 295.44,609.05 296.25,609.15 C296.94,609.24 297.95,609.41 298.50,609.54 C299.05,609.66 300.09,609.82 300.81,609.88 C301.70,609.96 302.02,611.21 301.81,613.75 C301.53,617.18 301.22,617.53 298.21,617.82 L 294.92 618.13 L 295.21 626.81 L 295.50 635.49 L 298.50 636.00 C301.16,636.46 301.50,636.91 301.50,640.01 L 301.50 643.50 L 299.37 643.60 C299.92,643.22 300.00,642.46 300.00,641.00 ZM 388.50 544.05 C391.25,543.50 396.42,542.56 400.00,541.96 C408.58,540.51 421.30,534.21 427.34,528.41 C430.02,525.83 432.58,522.70 434.88,519.25 C432.58,522.70 430.03,525.83 427.34,528.42 C418.36,537.08 402.57,543.79 383.88,546.90 C374.53,548.46 369.04,548.27 365.01,546.25 C361.04,544.26 344.89,524.41 345.28,522.00 C345.48,520.75 348.74,520.41 365.01,519.97 C375.95,519.68 381.94,519.36 386.66,518.35 L 386.62 518.37 C380.22,520.45 375.92,521.06 363.39,521.62 C354.92,521.99 348.00,522.48 348.00,522.69 C348.00,523.76 357.03,535.19 361.93,540.34 L 367.50 546.17 L 375.50 545.61 C379.90,545.30 385.75,544.60 388.50,544.05 ZM 171.03 633.25 C171.05,626.38 171.50,621.93 172.28,620.91 C173.92,618.78 177.40,617.00 179.93,617.00 C181.56,617.00 182.00,616.37 182.00,614.00 C182.00,610.18 179.37,609.98 175.22,613.47 C172.16,616.05 171.00,615.89 171.00,612.90 C171.00,611.54 170.26,611.18 167.75,611.32 L 164.50 611.50 L 164.00 626.50 C163.69,635.79 163.88,641.96 164.50,642.71 C164.91,643.20 165.93,643.64 167.04,643.84 C164.91,643.91 163.06,643.72 162.71,643.38 C162.32,642.99 162.00,635.57 162.00,626.89 C162.00,615.36 162.34,610.91 163.25,610.34 C165.52,608.92 168.20,608.96 171.18,610.44 C173.29,611.49 174.82,611.64 176.62,610.95 C178.00,610.43 180.25,610.00 181.62,610.00 C183.94,610.00 184.09,610.31 183.81,614.24 C183.51,618.30 183.34,618.50 179.70,619.09 C177.61,619.43 175.36,620.24 174.70,620.90 C173.99,621.61 173.30,626.46 173.00,632.80 L 172.50 643.50 L 171.00 643.60 ZM 504.41 544.88 C517.99,542.38 528.60,538.78 537.63,533.29 C530.82,537.63 523.40,540.77 515.50,542.55 C511.65,543.42 506.48,544.62 504.00,545.23 C497.88,546.72 445.37,547.41 444.51,546.01 C444.15,545.43 445.40,542.83 447.28,540.23 C449.17,537.63 452.40,532.24 454.48,528.25 C457.67,522.10 458.65,520.99 460.87,520.94 C462.32,520.91 472.50,520.50 483.50,520.02 C493.18,519.61 498.33,519.34 502.05,518.79 C494.99,520.32 486.70,521.20 476.72,521.60 C469.45,521.89 462.57,522.31 461.43,522.54 C460.06,522.81 458.45,524.91 456.67,528.72 C453.78,534.93 452.73,536.76 449.30,541.63 C448.08,543.35 447.40,545.07 447.79,545.45 C448.70,546.37 499.09,545.86 504.41,544.88 ZM 192.75 692.25 C192.25,693.78 182.44,694.52 181.56,693.09 C181.21,692.54 181.40,691.28 181.96,690.29 C182.53,689.31 183.59,684.82 184.33,680.32 C185.63,672.48 185.60,672.13 183.74,671.64 C179.46,670.52 183.50,669.00 190.76,669.00 C198.42,669.00 200.03,670.53 193.07,671.18 C190.26,671.44 189.49,672.02 188.88,674.33 C187.90,678.03 188.68,679.90 190.95,679.30 C191.95,679.04 193.05,679.26 193.38,679.80 C194.11,680.98 192.20,682.65 189.57,683.14 C187.67,683.50 185.56,688.48 186.60,690.16 C186.89,690.62 188.48,691.00 190.14,691.00 C192.11,691.00 193.02,691.43 192.75,692.25 ZM 273.78 627.63 L 273.50 643.50 L 271.13 643.65 C271.60,641.53 271.82,614.94 271.37,613.25 C270.92,611.58 270.03,611.00 267.88,611.00 L 265.00 611.00 L 265.00 643.74 C264.34,643.66 263.87,643.54 263.71,643.38 C263.32,642.99 263.00,635.36 263.00,626.43 L 263.00 610.20 L 267.57 609.84 C270.23,609.63 272.55,609.95 273.10,610.62 C273.64,611.27 273.93,618.61 273.78,627.63 ZM 492.00 610.87 L 485.50 611.50 L 485.21 625.50 C484.91,640.00 485.04,643.19 487.39,643.84 C486.01,643.80 484.96,643.63 484.71,643.38 C483.69,642.36 483.83,610.22 484.86,609.59 C485.33,609.30 487.69,609.39 490.11,609.81 L 494.50 610.56 L 494.50 643.50 L 492.00 643.66 ZM 240.67 642.92 C235.92,645.21 235.88,645.22 231.24,643.88 C220.29,640.72 218.66,615.85 229.05,610.47 C233.11,608.38 239.23,608.61 242.23,610.97 C243.61,612.05 245.02,612.65 245.37,612.30 C245.71,611.95 246.00,608.16 246.00,603.88 L 246.00 600.93 L 246.28 605.57 C246.80,614.32 246.70,615.00 244.97,615.00 C243.94,615.00 242.74,614.39 242.30,613.65 C239.91,609.59 230.93,609.21 227.49,613.01 C221.07,620.11 222.11,635.80 229.35,640.75 C233.78,643.79 237.25,643.59 241.27,640.07 C244.82,636.95 247.89,637.24 246.61,640.57 C246.35,641.25 246.37,641.95 246.63,642.49 C246.61,642.46 246.58,642.44 246.56,642.42 C245.11,640.97 244.60,641.02 240.67,642.92 ZM 546.00 633.25 C546.01,624.30 546.34,621.96 547.99,619.25 C550.43,615.25 555.08,614.78 558.69,618.17 C560.85,620.21 561.00,621.11 561.00,632.17 L 561.00 643.55 L 560.50 643.50 L 560.00 632.40 C559.67,625.10 559.03,620.73 558.13,619.65 C556.49,617.68 551.68,617.47 550.16,619.31 C549.55,620.04 548.94,625.73 548.78,632.06 L 548.50 643.50 L 546.00 643.68 ZM 272.17 602.35 C269.77,604.52 266.71,604.45 264.65,602.17 C261.36,598.53 263.63,593.00 268.42,593.00 C273.22,593.00 275.70,599.15 272.17,602.35 ZM 448.84 641.79 C448.82,641.51 448.74,641.17 448.63,640.75 C448.30,639.51 448.02,632.31 448.01,624.75 L 448.00 611.00 L 441.00 611.00 L 441.00 621.37 C441.00,630.34 440.72,632.08 438.93,634.37 C436.54,637.40 432.05,637.91 429.57,635.43 C428.33,634.18 428.00,631.48 428.00,622.43 L 428.00 621.28 C428.00,633.09 429.19,636.00 434.03,636.00 C438.57,636.00 440.00,632.16 440.00,619.99 L 440.00 609.89 L 444.75 610.20 L 449.50 610.50 L 449.60 621.00 C449.65,626.78 449.48,634.09 449.22,637.25 ZM 227.00 697.74 C227.00,698.85 226.25,700.37 225.34,701.13 C223.81,702.39 223.74,702.03 224.46,696.50 C225.10,691.58 225.51,686.53 225.96,677.75 C226.03,676.34 229.00,676.99 229.00,678.42 C229.00,679.20 229.46,679.99 230.02,680.17 C230.67,680.39 230.45,682.27 229.42,685.28 C228.07,689.24 228.02,690.32 229.11,691.63 C230.21,692.96 230.15,693.42 228.71,694.47 C227.77,695.16 227.00,696.63 227.00,697.74 ZM 466.78 323.02 C454.47,323.04 443.92,323.33 443.56,323.91 C443.25,324.41 443.88,325.87 444.96,327.16 C449.11,332.10 451.72,335.69 454.99,341.00 C456.85,344.02 458.53,346.70 458.72,346.94 C459.18,347.56 471.38,348.94 480.66,349.60 C479.53,349.55 478.37,349.50 477.16,349.46 L 457.82 348.74 L 454.94 344.62 C453.35,342.35 450.36,338.06 448.28,335.08 C446.20,332.10 443.49,328.55 442.25,327.18 C441.01,325.82 440.00,324.32 440.00,323.85 C440.00,323.26 452.63,322.99 466.78,323.02 ZM 431.90 694.50 C431.31,697.80 430.40,701.17 429.90,702.00 C428.72,703.91 429.70,692.35 431.27,685.69 C432.14,682.00 432.13,680.43 431.20,678.94 C430.53,677.87 430.36,677.00 430.83,677.00 C431.89,677.00 434.42,671.91 434.15,670.33 C434.04,669.68 434.46,668.83 435.08,668.45 C435.90,667.95 436.03,668.88 435.54,671.74 C435.01,674.89 435.20,675.86 436.46,676.35 C437.85,676.88 437.80,677.20 436.08,678.92 C435.00,680.00 433.86,682.60 433.55,684.69 C433.24,686.79 432.50,691.20 431.90,694.50 ZM 336.84 700.45 C335.55,703.28 333.35,704.04 334.53,701.25 C334.93,700.29 335.38,696.80 335.52,693.50 C335.65,690.20 336.49,685.84 337.37,683.81 C338.79,680.54 338.81,679.95 337.49,678.63 C336.16,677.31 336.23,677.06 338.10,676.47 C341.93,675.25 342.48,677.39 340.16,684.48 C338.97,688.09 338.00,692.59 338.00,694.47 C338.00,696.36 337.48,699.05 336.84,700.45 ZM 366.87 691.28 C364.63,699.97 361.08,706.99 362.47,700.00 C362.86,698.08 363.54,693.58 363.99,690.00 C364.91,682.75 366.73,677.00 368.10,677.00 C369.60,677.00 369.12,682.59 366.87,691.28 ZM 219.31 685.64 C219.44,692.37 219.22,693.53 217.73,693.81 C215.31,694.28 214.82,692.30 215.90,686.51 C216.48,683.39 216.47,680.88 215.87,679.76 C215.16,678.43 215.32,677.81 216.50,677.36 C218.89,676.44 219.13,677.15 219.31,685.64 ZM 390.18 689.76 C390.46,692.85 389.25,694.92 387.94,693.60 C387.70,693.36 387.53,689.64 387.56,685.33 C387.62,678.06 387.78,677.48 389.81,677.18 C391.75,676.90 392.00,677.32 392.00,680.87 C392.00,683.08 391.52,685.18 390.93,685.54 C390.35,685.90 390.01,687.80 390.18,689.76 ZM 479.22 690.37 C479.37,691.98 478.99,693.48 478.37,693.69 C476.79,694.24 475.68,687.46 476.96,685.08 C478.40,682.39 478.27,678.01 476.75,677.97 C476.02,677.95 476.19,677.54 477.16,676.97 C478.88,675.97 482.00,676.62 482.00,677.98 C482.00,678.40 481.31,680.71 480.47,683.10 C479.62,685.49 479.06,688.76 479.22,690.37 ZM 305.79 685.16 C305.55,692.17 305.22,693.53 303.74,693.81 C302.15,694.12 302.02,693.35 302.37,685.83 C302.69,679.07 303.08,677.44 304.42,677.17 C305.88,676.88 306.05,677.85 305.79,685.16 ZM 315.00 688.81 C315.00,691.79 312.64,694.85 311.63,693.20 C311.32,692.71 311.55,690.60 312.13,688.51 C312.70,686.41 312.96,683.56 312.69,682.16 C312.09,679.03 312.80,677.00 314.50,677.00 C316.26,677.00 317.28,681.62 316.02,683.95 C315.46,685.01 315.00,687.19 315.00,688.81 ZM 211.00 688.81 C211.00,691.72 208.65,694.87 207.67,693.27 C207.39,692.82 207.75,689.91 208.47,686.81 C209.34,683.05 209.45,680.85 208.78,680.18 C207.54,678.94 208.62,677.00 210.54,677.00 C212.45,677.00 213.43,681.33 212.09,683.84 C211.49,684.96 211.00,687.19 211.00,688.81 ZM 498.06 692.42 C495.18,695.90 493.03,692.76 495.02,687.96 C495.70,686.31 496.02,683.17 495.72,680.98 C495.26,677.55 495.45,677.00 497.10,677.00 C499.20,677.00 499.24,677.32 498.06,684.50 C497.51,687.83 497.59,689.73 498.30,690.17 C499.04,690.64 498.96,691.34 498.06,692.42 ZM 454.87 692.25 C453.13,695.49 451.68,694.26 452.52,690.25 C452.95,688.19 453.35,684.51 453.40,682.08 C453.51,677.35 455.39,675.51 456.51,679.04 C457.29,681.49 456.28,689.62 454.87,692.25 ZM 445.02 690.03 C445.68,691.27 445.53,692.15 444.49,693.01 C442.25,694.86 441.55,691.86 442.93,686.38 C443.71,683.27 443.75,681.41 443.06,680.58 C441.91,679.19 443.53,677.00 445.70,677.00 C447.49,677.00 447.34,683.96 445.51,686.39 C444.52,687.69 444.37,688.82 445.02,690.03 ZM 361.93 691.58 C361.28,692.36 359.89,693.00 358.82,693.00 C357.11,693.00 356.91,692.31 357.06,686.75 C357.15,683.31 356.88,679.67 356.46,678.65 C355.86,677.18 356.10,676.88 357.60,677.17 C359.21,677.49 359.50,678.46 359.50,683.51 C359.50,688.45 359.81,689.53 361.30,689.82 C362.74,690.10 362.87,690.46 361.93,691.58 ZM 398.62 687.70 C398.45,690.83 397.81,693.56 397.19,693.77 C395.44,694.35 394.63,689.20 395.83,685.16 C396.44,683.15 397.20,680.49 397.53,679.25 C397.86,678.01 398.78,677.00 399.57,677.00 C401.27,677.00 401.34,677.50 399.96,680.07 C399.39,681.13 398.79,684.57 398.62,687.70 ZM 323.01 690.25 C323.00,691.97 322.46,693.00 321.56,693.00 C320.42,693.00 320.17,691.37 320.31,685.00 C320.48,677.89 320.71,677.00 322.39,677.00 C324.08,677.00 324.21,677.55 323.65,682.25 C323.30,685.14 323.01,688.74 323.01,690.25 ZM 463.73 687.93 C463.56,691.06 462.92,693.53 462.22,693.76 C460.25,694.42 459.64,691.15 460.93,686.85 C461.59,684.65 461.83,681.49 461.46,679.83 C460.90,677.25 461.07,676.87 462.65,677.19 C463.94,677.45 464.43,678.31 464.26,680.03 C464.13,681.39 463.89,684.94 463.73,687.93 ZM 290.38 691.75 C290.21,692.44 289.56,693.00 288.95,693.00 C288.21,693.00 288.09,691.92 288.60,689.75 C289.02,687.96 289.42,684.50 289.49,682.06 C289.64,677.16 290.87,675.96 292.73,678.94 C293.71,680.50 293.63,681.83 292.32,685.69 C291.43,688.34 290.56,691.06 290.38,691.75 ZM 408.60 687.44 C407.03,694.98 404.27,696.73 405.52,689.38 C405.97,686.70 406.31,682.81 406.27,680.75 C406.23,678.31 406.65,677.00 407.49,677.00 C409.52,677.00 409.93,680.97 408.60,687.44 ZM 202.79 690.42 C202.63,692.03 201.90,693.54 201.17,693.78 C200.13,694.13 200.00,693.19 200.57,689.37 C200.97,686.71 201.34,682.99 201.40,681.10 C201.45,679.21 202.05,677.48 202.71,677.26 C204.47,676.68 205.41,681.57 204.15,684.77 C203.56,686.27 202.95,688.82 202.79,690.42 ZM 271.58 599.56 C272.37,596.40 271.45,595.00 268.56,595.00 C265.57,595.00 263.93,597.02 264.66,599.80 C265.52,603.08 270.74,602.90 271.58,599.56 ZM 489.64 687.95 C488.91,690.39 487.74,692.59 487.05,692.82 C486.18,693.11 485.99,692.59 486.45,691.16 C486.98,689.50 487.66,683.43 487.96,677.75 C487.98,677.34 488.67,677.00 489.50,677.00 C491.41,677.00 491.47,681.83 489.64,687.95 ZM 521.94 692.58 C520.26,694.60 517.25,694.34 516.04,692.07 C514.64,689.46 514.78,687.00 516.50,684.00 C518.05,681.30 518.11,681.42 518.39,688.00 C518.47,689.81 519.14,690.59 520.81,690.83 C522.68,691.09 522.89,691.42 521.94,692.58 ZM 259.50 687.00 C259.88,688.54 259.53,690.27 258.59,691.50 C257.75,692.60 257.03,693.28 256.98,693.00 C256.94,692.72 256.71,690.25 256.47,687.50 C256.23,684.75 255.75,681.21 255.41,679.63 C254.94,677.48 255.13,676.88 256.14,677.21 C256.88,677.46 257.81,679.20 258.19,681.08 C258.58,682.96 259.17,685.62 259.50,687.00 ZM 279.42 693.39 C277.19,694.25 276.56,694.16 275.20,692.80 C273.17,690.77 274.00,682.26 276.10,683.56 C276.60,683.87 277.00,685.67 277.00,687.56 C277.00,690.33 277.39,691.00 279.00,691.00 C281.38,691.00 281.65,692.54 279.42,693.39 ZM 383.05 683.88 C381.35,687.99 380.00,687.84 380.00,683.56 C380.00,681.67 379.55,679.84 379.00,679.50 C377.20,678.39 377.95,676.85 380.15,677.18 C383.46,677.67 384.56,680.22 383.05,683.88 ZM 332.35 692.53 C331.57,694.57 330.27,694.36 329.00,691.99 C328.22,690.54 328.25,688.88 329.12,685.99 C330.66,680.85 332.38,680.78 331.52,685.90 C331.13,688.21 331.28,690.05 331.89,690.43 C332.45,690.78 332.66,691.72 332.35,692.53 ZM 376.43 693.11 C375.49,694.64 373.11,694.08 372.04,692.08 C370.95,690.04 371.67,684.32 373.13,683.42 C373.61,683.12 374.00,684.43 374.00,686.32 C374.00,688.21 374.67,690.31 375.49,690.99 C376.31,691.67 376.73,692.63 376.43,693.11 ZM 236.37 685.75 C235.31,689.71 233.70,688.29 234.38,684.00 C234.78,681.55 234.63,680.00 234.01,680.00 C233.46,680.00 233.00,679.33 233.00,678.50 C233.00,677.67 233.89,677.00 235.00,677.00 C236.59,677.00 237.00,677.66 236.99,680.25 C236.98,682.04 236.70,684.51 236.37,685.75 ZM 244.43 693.11 C243.62,694.42 242.34,694.20 240.57,692.43 C238.63,690.48 238.61,688.10 240.53,685.56 C241.93,683.72 242.00,683.77 242.00,686.69 C242.00,688.37 242.67,690.31 243.49,690.99 C244.31,691.67 244.73,692.63 244.43,693.11 ZM 472.35 692.53 C470.61,697.05 467.43,691.26 469.01,686.46 C470.59,681.68 471.61,681.45 471.17,685.97 C470.98,688.06 471.28,690.06 471.86,690.41 C472.44,690.77 472.66,691.72 472.35,692.53 ZM 507.57 692.89 C506.58,694.50 504.03,694.25 503.36,692.49 C503.04,691.66 503.13,688.84 503.56,686.24 L 504.35 681.50 L 505.00 685.84 C505.36,688.22 506.24,690.53 506.96,690.97 C507.67,691.41 507.95,692.28 507.57,692.89 ZM 535.59 687.49 C536.61,691.57 534.25,690.42 532.14,685.81 C529.72,680.54 530.46,677.59 533.11,681.93 C534.12,683.61 535.24,686.11 535.59,687.49 ZM 329.46 707.07 C328.45,708.69 325.11,708.07 324.04,706.07 C322.59,703.36 322.74,702.00 324.50,702.00 C325.33,702.00 326.00,702.64 326.00,703.43 C326.00,704.22 326.91,705.15 328.01,705.50 C329.12,705.86 329.77,706.56 329.46,707.07 ZM 357.46 707.07 C356.35,708.86 353.33,707.98 351.99,705.48 C350.93,703.51 350.90,702.70 351.85,701.75 C352.80,700.80 353.19,701.01 353.64,702.73 C353.96,703.94 355.07,705.21 356.12,705.54 C357.17,705.87 357.77,706.56 357.46,707.07 ZM 250.81 680.22 C250.99,681.72 250.66,683.75 250.09,684.72 C249.19,686.29 249.06,686.19 249.03,683.97 C249.01,682.58 248.27,680.41 247.38,679.14 C245.83,676.91 245.85,676.84 248.13,677.17 C249.86,677.41 250.58,678.24 250.81,680.22 ZM 265.00 681.50 C265.00,683.94 264.55,685.00 263.50,685.00 C261.96,685.00 261.53,682.39 262.61,679.58 C263.67,676.81 265.00,677.88 265.00,681.50 ZM 435.34 640.72 C439.23,637.04 441.00,637.00 441.00,640.58 C441.00,642.75 441.43,643.00 445.12,643.00 C447.62,643.00 448.60,642.92 448.80,642.26 L 448.74 643.00 L 444.37 643.00 C441.15,643.00 440.00,642.60 440.00,641.50 C440.00,639.58 439.73,639.60 435.26,642.00 C432.61,643.42 430.65,644.02 428.75,643.85 C430.91,644.02 432.90,643.02 435.34,640.72 ZM 284.00 679.00 C284.00,680.04 283.55,681.16 283.00,681.50 C282.45,681.84 282.00,681.42 282.00,680.56 C282.00,679.70 281.23,679.00 280.29,679.00 C278.71,679.00 278.70,678.87 280.19,677.38 C282.08,675.49 284.00,676.31 284.00,679.00 ZM 266.80 689.54 C266.18,690.89 265.30,692.00 264.84,692.00 C263.65,692.00 263.79,687.25 265.00,686.50 C266.94,685.30 267.95,687.01 266.80,689.54 ZM 215.30 705.53 C217.19,708.13 216.66,708.61 213.75,706.92 C212.03,705.92 211.27,702.97 212.75,703.03 C213.16,703.05 214.31,704.17 215.30,705.53 ZM 532.00 693.24 C532.00,693.66 531.15,694.00 530.11,694.00 C528.26,694.00 526.61,691.73 527.68,690.66 C528.34,690.00 532.00,692.19 532.00,693.24 ZM 525.00 679.00 C525.00,681.38 523.46,681.65 522.61,679.42 C521.75,677.18 521.82,677.00 523.50,677.00 C524.33,677.00 525.00,677.89 525.00,679.00 ZM 307.82 671.67 C307.34,674.18 305.00,674.52 305.00,672.08 C305.00,670.85 305.65,670.00 306.57,670.00 C307.50,670.00 308.01,670.68 307.82,671.67 ZM 416.00 678.43 C416.00,679.35 415.14,680.00 413.92,680.00 C411.48,680.00 411.82,677.66 414.33,677.18 C415.32,676.99 416.00,677.50 416.00,678.43 ZM 299.00 678.50 C299.00,679.33 298.33,680.00 297.50,680.00 C296.67,680.00 296.00,679.33 296.00,678.50 C296.00,677.67 296.67,677.00 297.50,677.00 C298.33,677.00 299.00,677.67 299.00,678.50 ZM 272.00 678.44 C272.00,679.23 271.55,680.16 271.00,680.50 C270.45,680.84 270.00,680.19 270.00,679.06 C270.00,677.93 270.45,677.00 271.00,677.00 C271.55,677.00 272.00,677.65 272.00,678.44 ZM 448.00 670.94 C448.00,671.46 447.55,672.16 447.00,672.50 C446.45,672.84 446.00,672.42 446.00,671.56 C446.00,670.70 446.45,670.00 447.00,670.00 C447.55,670.00 448.00,670.42 448.00,670.94 ZM 546.71 395.15 C547.71,398.76 548.57,402.89 549.47,408.00 C550.33,412.88 550.83,419.77 551.00,427.14 C550.53,415.43 549.06,403.83 546.71,395.15 ZM 487.57 349.94 C487.78,349.95 487.97,349.95 488.16,349.95 C495.33,350.00 501.74,350.82 507.52,352.48 C502.63,351.23 496.50,350.48 487.57,349.94 ZM 568.59 497.52 C573.65,487.02 577.59,474.90 579.69,462.88 C577.47,475.60 573.69,487.25 568.59,497.52 ZM 533.76 370.53 C529.62,365.47 524.86,361.10 519.87,357.89 C525.05,361.07 529.63,365.26 533.76,370.53 ZM 405.04 455.56 C401.96,452.67 398.19,450.07 394.55,448.43 C394.15,448.25 393.74,448.07 393.32,447.90 C397.30,449.40 400.34,451.36 403.31,453.97 C403.91,454.50 404.49,455.03 405.04,455.56 ZM 403.69 509.73 C407.29,506.22 410.69,501.47 412.48,497.15 C411.05,500.78 408.99,504.02 406.20,507.12 C405.33,508.09 404.51,508.95 403.69,509.73 ZM 414.77 476.62 C414.22,471.82 412.97,467.22 411.07,463.44 C413.13,467.27 414.31,471.55 414.77,476.62 ZM 565.55 643.93 C566.68,643.79 567.75,643.47 568.39,643.07 C567.76,643.73 566.85,643.94 565.55,643.93 ZM 569.32 640.91 C569.55,639.06 569.59,636.03 569.49,632.66 C569.65,636.59 569.64,639.20 569.32,640.91 ZM 520.32 511.89 C517.55,513.56 514.55,514.99 511.23,516.19 C514.66,514.87 517.63,513.48 520.32,511.89 ZM 254.42 643.13 C253.98,643.84 252.46,644.09 250.84,643.96 C252.48,644.00 254.06,643.72 254.42,643.13 ZM 538.91 641.73 C538.06,639.43 538.06,634.83 538.22,625.87 C538.06,634.87 538.10,639.44 538.91,641.73 ZM 533.69 499.94 C534.43,499.02 535.14,498.10 535.81,497.16 C535.13,498.12 534.41,499.06 533.65,500.00 C533.10,500.69 532.53,501.36 531.96,502.01 C532.54,501.35 533.11,500.66 533.69,499.94 Z" fill="rgb(88,92,92)"/>
<path d="M 496.50 546.90 C494.25,547.49 481.98,547.96 468.44,547.98 C439.83,548.00 438.70,547.70 443.78,541.28 C445.51,539.09 448.56,534.20 450.55,530.40 C456.55,518.97 455.07,519.60 477.78,518.86 C498.55,518.19 501.43,517.77 512.21,513.77 C523.56,509.55 532.99,500.83 539.00,488.97 C540.25,486.51 541.58,484.27 541.95,484.00 C543.45,482.91 546.23,474.11 548.56,463.14 C548.95,461.29 549.28,459.64 549.56,458.06 C549.37,459.32 549.17,460.49 548.95,461.55 C545.35,479.05 541.84,488.75 535.80,497.17 L 502.15 545.52 C500.21,545.97 498.02,546.50 496.50,546.90 ZM 435.16 643.41 C431.45,645.34 428.53,645.37 424.31,643.54 C418.86,641.16 417.59,637.27 417.54,622.72 C417.50,608.73 417.72,608.18 423.27,608.59 C425.05,608.72 427.06,608.87 427.75,608.91 C428.67,608.98 429.00,611.98 429.00,620.35 C429.00,630.07 429.26,631.93 430.83,633.35 C431.83,634.26 433.35,635.00 434.21,635.00 C437.43,635.00 438.45,631.92 438.84,621.12 C439.05,615.28 439.65,609.96 440.18,609.31 C441.18,608.07 448.50,608.17 449.78,609.44 C450.68,610.34 451.36,638.41 450.56,641.63 C450.03,643.71 449.38,644.00 445.18,644.00 C442.55,644.00 439.91,643.51 439.31,642.91 C438.53,642.13 437.37,642.28 435.16,643.41 ZM 448.84 641.79 L 449.22 637.25 C449.48,634.09 449.65,626.78 449.60,621.00 L 449.50 610.50 L 444.75 610.20 L 440.00 609.89 L 440.00 619.99 C440.00,632.16 438.57,636.00 434.03,636.00 C429.19,636.00 428.00,633.09 428.00,621.28 L 428.00 611.00 L 420.00 611.00 L 420.04 623.75 C420.07,637.40 420.84,640.24 425.11,642.60 L 425.11 642.61 C426.40,643.32 427.56,643.74 428.75,643.85 C430.65,644.02 432.61,643.42 435.26,642.00 C439.73,639.60 440.00,639.58 440.00,641.50 C440.00,642.60 441.15,643.00 444.37,643.00 L 448.74 643.00 L 448.80 642.26 C448.84,642.13 448.86,641.97 448.84,641.79 ZM 259.50 687.00 C259.17,685.62 258.58,682.96 258.19,681.08 C257.81,679.20 256.88,677.46 256.14,677.21 C255.13,676.88 254.94,677.48 255.41,679.63 C255.75,681.21 256.23,684.75 256.47,687.50 L 256.51 687.91 C256.35,686.80 256.04,685.64 255.61,684.60 C253.97,680.67 252.00,679.81 252.00,683.02 C252.00,685.64 247.59,692.62 245.08,693.96 C244.99,694.01 244.90,694.05 244.82,694.10 C243.82,694.63 243.33,694.89 242.85,694.88 C242.34,694.87 241.83,694.55 240.75,693.92 C239.63,693.27 239.00,691.68 239.00,689.52 C239.00,679.78 247.21,672.18 251.35,678.09 L 252.81 680.17 L 253.49 678.03 C254.54,674.74 258.09,675.79 259.43,679.79 L 260.53 683.07 L 261.68 680.04 C263.20,676.00 266.00,675.97 266.00,680.00 C266.00,683.98 267.73,683.83 268.78,679.75 C269.70,676.22 272.25,675.35 272.83,678.38 C273.17,680.12 271.62,684.11 269.69,686.50 C269.25,687.05 268.01,688.96 266.96,690.75 C264.43,695.01 263.20,694.86 262.79,690.25 L 262.46 686.50 L 260.55 690.25 C258.20,694.84 255.53,695.40 256.48,691.10 C256.60,690.55 256.64,689.91 256.62,689.23 C256.80,691.22 256.95,692.78 256.98,693.00 C257.03,693.28 257.75,692.60 258.59,691.50 C259.53,690.27 259.88,688.54 259.50,687.00 ZM 361.42 705.51 C355.99,710.94 351.00,709.88 351.00,703.30 C351.00,699.32 353.16,698.87 354.82,702.50 C356.00,705.10 356.80,705.47 358.52,704.23 C360.04,703.14 362.00,698.24 362.00,695.55 C362.00,693.64 361.60,693.29 359.90,693.74 C357.05,694.48 356.03,692.54 356.02,686.31 C356.01,683.45 355.55,680.84 355.00,680.50 C353.41,679.52 355.78,676.00 358.02,676.00 C360.31,676.00 361.41,679.35 360.81,684.52 C360.21,689.62 362.09,688.31 364.53,681.92 C365.72,678.80 367.21,676.50 368.05,676.50 C369.68,676.50 369.68,677.48 368.03,687.50 C366.12,699.02 365.08,701.85 361.42,705.51 ZM 498.06 692.42 C498.96,691.34 499.04,690.64 498.30,690.17 C497.59,689.73 497.51,687.83 498.06,684.50 C499.24,677.32 499.20,677.00 497.10,677.00 C495.45,677.00 495.26,677.55 495.72,680.98 C496.02,683.17 495.70,686.31 495.02,687.96 C494.55,689.08 494.31,690.10 494.26,690.98 C494.13,689.78 494.16,688.27 494.37,686.48 C494.78,683.04 494.64,681.00 494.01,681.00 C493.45,681.00 492.99,681.11 492.97,681.25 C492.67,683.97 488.91,692.65 487.71,693.41 C485.23,694.98 484.86,693.76 486.09,688.02 C486.98,683.85 486.95,682.59 485.94,681.96 C484.93,681.34 485.01,680.63 486.35,678.59 C488.16,675.83 489.93,675.33 491.68,677.08 C492.46,677.86 493.33,677.81 494.75,676.92 C495.84,676.24 497.49,675.98 498.42,676.33 C499.84,676.88 500.00,677.88 499.44,682.86 C498.66,689.73 500.04,691.58 501.94,686.20 C504.14,679.93 507.69,676.00 511.12,676.00 C513.47,676.00 514.07,676.39 513.80,677.75 C513.57,678.89 512.70,679.40 511.32,679.20 C508.55,678.82 506.00,682.43 506.00,686.72 C506.00,690.32 507.56,690.98 509.57,688.25 C510.79,686.59 510.89,686.59 511.55,688.29 C513.21,692.57 504.42,696.25 502.07,692.25 C501.43,691.17 500.74,690.88 500.27,691.50 C497.99,694.46 496.14,695.09 495.10,693.70 C495.80,694.17 496.87,693.86 498.06,692.42 ZM 428.34 706.74 C425.54,709.33 421.00,709.80 421.00,707.50 C421.00,706.18 422.25,705.53 423.40,706.25 C424.70,707.07 427.84,702.27 428.33,698.71 C428.65,696.39 429.35,691.38 429.88,687.56 C430.73,681.51 430.64,680.44 429.18,679.28 C427.63,678.05 427.68,677.82 429.75,676.35 C430.99,675.47 432.00,674.06 432.00,673.22 C432.00,670.89 436.80,663.18 438.97,662.02 C443.67,659.50 444.58,662.46 440.12,665.75 C436.57,668.37 435.35,673.82 437.85,675.84 C439.36,677.06 439.31,677.30 437.25,678.71 C436.01,679.55 435.00,681.17 435.00,682.31 C435.00,684.82 433.21,695.01 431.80,700.49 C431.24,702.68 429.68,705.50 428.34,706.74 ZM 223.05 706.11 C219.82,709.33 216.55,709.78 213.22,707.44 C210.86,705.79 210.50,704.34 211.88,702.16 C212.54,701.12 213.33,701.42 215.45,703.54 C218.14,706.23 218.20,706.24 220.10,704.35 C222.43,702.02 225.31,687.18 224.46,681.92 C223.73,677.42 226.01,674.90 229.08,676.82 C230.55,677.73 231.44,677.74 232.87,676.85 C235.96,674.92 238.00,676.47 237.98,680.72 C237.96,685.76 234.25,692.16 230.34,693.88 C228.53,694.69 227.64,695.45 227.10,697.00 C227.33,696.04 227.97,695.01 228.71,694.47 C230.15,693.42 230.21,692.96 229.11,691.63 C228.02,690.32 228.07,689.24 229.42,685.28 C230.45,682.27 230.67,680.39 230.02,680.17 C229.46,679.99 229.00,679.20 229.00,678.42 C229.00,676.99 226.03,676.34 225.96,677.75 C225.51,686.53 225.10,691.58 224.46,696.50 C223.74,702.03 223.81,702.39 225.34,701.13 C225.80,700.74 226.22,700.16 226.53,699.54 C226.08,701.90 224.76,704.40 223.05,706.11 ZM 521.94 692.58 C522.89,691.42 522.68,691.09 520.81,690.83 C519.14,690.59 518.47,689.81 518.39,688.00 C518.11,681.42 518.05,681.30 516.50,684.00 C515.55,685.67 515.08,687.17 515.09,688.62 C515.03,688.12 515.00,687.59 515.00,687.03 C515.00,679.15 524.98,672.01 525.82,679.30 C526.07,681.48 525.31,682.86 522.39,685.54 C518.58,689.02 518.40,691.48 522.12,689.15 C523.71,688.16 524.47,688.15 525.60,689.09 C526.40,689.75 527.32,690.01 527.66,689.68 C527.99,689.34 529.08,689.51 530.07,690.04 C532.84,691.52 533.09,689.81 530.78,685.26 C528.78,681.31 528.76,681.01 530.40,678.51 C531.77,676.43 532.79,675.95 535.31,676.19 C537.34,676.39 538.50,677.04 538.50,678.00 C538.50,679.04 537.66,679.41 535.75,679.21 C532.48,678.87 532.25,680.24 535.00,683.73 C537.49,686.90 537.56,690.19 535.17,692.35 C534.06,693.35 532.35,693.89 530.70,693.96 C531.45,693.86 532.00,693.58 532.00,693.24 C532.00,692.19 528.34,690.00 527.68,690.66 C526.71,691.63 527.97,693.59 529.60,693.94 C528.04,693.82 526.68,693.25 526.12,692.26 C525.22,690.64 524.98,690.67 522.76,692.76 C520.10,695.26 519.59,695.49 517.61,693.60 C519.01,694.28 520.79,693.96 521.94,692.58 ZM 336.84 700.45 C337.48,699.05 338.00,696.36 338.00,694.47 C338.00,692.59 338.97,688.09 340.16,684.48 C340.52,683.35 340.82,682.35 341.04,681.47 C340.84,683.26 340.50,685.69 340.04,689.00 C338.57,699.76 337.56,702.30 333.34,706.00 C331.47,707.65 328.83,709.00 327.49,709.00 C323.09,709.00 319.99,701.01 324.08,700.22 C324.97,700.05 326.14,701.02 326.80,702.46 C329.16,707.64 333.35,704.37 334.46,696.50 C335.03,692.44 334.92,691.74 333.88,692.75 C333.32,693.30 332.36,693.68 331.35,693.86 C331.73,693.69 332.07,693.25 332.35,692.53 C332.66,691.72 332.45,690.78 331.89,690.43 C331.28,690.05 331.13,688.21 331.52,685.90 C332.11,682.37 331.48,681.30 330.53,682.67 C331.37,680.85 332.27,679.28 333.02,678.48 C334.78,676.60 336.26,675.99 338.47,676.20 C338.63,676.22 338.79,676.23 338.93,676.25 C338.68,676.30 338.40,676.37 338.10,676.47 C336.23,677.06 336.16,677.31 337.49,678.63 C338.81,679.95 338.79,680.54 337.37,683.81 C336.49,685.84 335.65,690.20 335.52,693.50 C335.38,696.80 334.93,700.29 334.53,701.25 C333.35,704.04 335.55,703.28 336.84,700.45 ZM 413.00 640.22 C413.00,638.07 412.34,637.19 410.09,636.34 C407.50,635.36 407.11,634.65 406.58,629.87 C406.25,626.92 406.16,618.42 406.36,611.00 C406.58,603.00 406.33,596.99 405.74,596.25 C405.42,595.83 404.85,595.52 404.14,595.31 L 407.50 595.50 L 407.77 615.25 C408.04,634.65 408.19,635.54 411.15,635.15 C412.63,634.96 414.12,638.06 413.82,640.69 C413.51,643.39 413.27,643.51 407.50,643.74 C396.70,644.18 395.90,642.40 395.51,617.03 C395.35,606.16 395.54,596.74 395.95,596.08 C396.33,595.46 397.92,595.13 400.37,595.14 C399.76,595.23 399.15,595.39 398.58,595.61 C397.21,596.13 397.00,598.98 397.00,617.15 C397.00,638.05 397.00,638.10 399.45,640.55 C401.47,642.56 402.90,643.00 407.45,643.00 C412.85,643.00 413.00,642.93 413.00,640.22 ZM 305.79 685.16 C306.05,677.85 305.88,676.88 304.42,677.17 C303.08,677.44 302.69,679.07 302.37,685.83 C302.14,690.75 302.12,692.78 302.58,693.51 C302.09,692.83 301.99,691.01 301.98,686.82 C301.98,682.80 301.62,680.05 301.20,680.72 C300.77,681.39 299.14,681.84 297.58,681.72 C295.04,681.52 294.58,681.97 293.24,686.00 C292.42,688.47 291.42,691.17 291.02,692.00 C290.61,692.83 289.49,693.66 288.51,693.85 C288.45,693.86 288.39,693.87 288.33,693.89 C287.88,693.98 287.55,694.04 287.35,693.91 C286.84,693.58 287.16,691.95 288.31,686.12 L 288.49 685.19 C288.89,683.16 288.68,681.32 287.95,680.44 C287.02,679.32 287.03,678.66 288.00,677.50 C289.47,675.73 292.67,675.51 293.21,677.14 C293.48,677.94 294.23,677.88 295.80,676.90 C297.45,675.87 298.44,675.79 299.76,676.62 C301.02,677.40 301.99,677.41 303.23,676.63 C306.25,674.72 307.00,676.94 306.22,685.51 C305.84,689.74 305.50,691.88 304.92,692.92 C305.44,691.88 305.63,689.71 305.79,685.16 ZM 383.05 683.88 C383.30,683.27 383.48,682.68 383.59,682.14 C383.56,682.70 383.50,683.30 383.39,683.94 C382.59,688.96 377.43,694.95 374.50,694.26 C369.72,693.13 368.72,689.44 371.62,683.70 C375.98,675.07 382.34,673.70 383.45,679.43 C382.97,678.23 381.85,677.43 380.15,677.18 C377.95,676.85 377.20,678.39 379.00,679.50 C379.55,679.84 380.00,681.67 380.00,683.56 C380.00,687.84 381.35,687.99 383.05,683.88 ZM 282.25 692.23 C275.34,698.29 270.24,691.32 274.80,682.03 C277.86,675.80 285.00,673.95 285.00,679.39 C285.00,681.02 283.64,683.01 280.94,685.32 C276.95,688.73 276.94,691.17 280.91,689.05 C281.99,688.47 283.12,688.00 283.43,688.00 C284.68,688.00 283.90,690.78 282.25,692.23 ZM 479.22 690.37 C479.06,688.76 479.62,685.49 480.47,683.10 C480.89,681.91 481.27,680.74 481.54,679.82 C481.50,680.41 481.42,681.13 481.31,681.99 C480.94,685.19 481.15,687.48 481.92,688.40 C482.85,689.52 482.83,690.30 481.82,691.92 C480.39,694.21 476.50,694.72 475.58,692.75 C475.12,691.75 474.88,691.75 474.42,692.75 C474.13,693.37 472.82,693.89 471.39,693.98 C471.73,693.75 472.06,693.28 472.35,692.53 C472.66,691.72 472.44,690.77 471.86,690.41 C471.28,690.06 470.98,688.06 471.17,685.97 C471.61,681.45 470.59,681.68 469.01,686.46 C467.99,689.57 468.96,693.09 470.25,693.96 C466.47,693.56 466.13,689.68 469.39,683.45 C472.41,677.69 475.59,675.43 479.38,676.38 C479.60,676.44 479.81,676.49 480.00,676.55 C479.05,676.40 477.96,676.50 477.16,676.97 C476.19,677.54 476.02,677.95 476.75,677.97 C478.27,678.01 478.40,682.39 476.96,685.08 C475.68,687.46 476.79,694.24 478.37,693.69 C478.99,693.48 479.37,691.98 479.22,690.37 ZM 315.00 688.81 C315.00,687.19 315.46,685.01 316.02,683.95 C317.28,681.62 316.26,677.00 314.50,677.00 C312.80,677.00 312.09,679.03 312.69,682.16 C312.96,683.56 312.70,686.41 312.13,688.51 C311.88,689.40 311.69,690.31 311.59,691.08 C311.61,690.18 311.67,689.11 311.78,687.99 C312.05,685.12 311.79,682.45 311.16,681.69 C310.34,680.71 310.45,679.80 311.59,678.18 C313.21,675.86 316.58,675.24 317.21,677.14 C317.49,677.96 318.17,677.91 319.66,676.98 C320.80,676.27 322.53,675.99 323.50,676.36 C324.92,676.91 325.16,677.85 324.74,681.27 C324.45,683.60 323.90,686.29 323.50,687.25 C323.00,688.49 323.26,689.00 324.39,689.00 C326.26,689.00 326.36,689.46 325.03,691.95 C323.83,694.19 321.73,695.07 320.05,694.03 C319.11,693.45 318.96,691.62 319.50,686.99 C320.00,682.71 319.90,680.95 319.18,681.39 C317.73,682.29 315.00,687.93 315.00,690.03 C315.00,691.07 314.24,692.34 313.42,693.06 C314.25,692.19 315.00,690.48 315.00,688.81 ZM 219.31 685.64 C219.13,677.15 218.89,676.44 216.50,677.36 C215.32,677.81 215.16,678.43 215.87,679.76 C216.47,680.88 216.48,683.39 215.90,686.51 C214.82,692.30 215.31,694.28 217.73,693.81 C218.05,693.75 218.30,693.65 218.52,693.47 C218.33,693.72 218.13,693.91 217.90,694.04 C215.13,695.59 214.03,693.14 214.54,686.58 L 215.02 680.50 L 213.04 684.50 C211.95,686.70 211.04,689.23 211.03,690.13 C211.01,691.10 210.28,692.28 209.48,693.00 C210.29,692.09 211.00,690.41 211.00,688.81 C211.00,687.19 211.49,684.96 212.09,683.84 C213.43,681.33 212.45,677.00 210.54,677.00 C208.62,677.00 207.54,678.94 208.78,680.18 C209.45,680.85 209.34,683.05 208.47,686.81 C207.99,688.86 207.67,690.83 207.59,692.05 C207.54,690.79 207.57,688.84 207.71,686.73 C208.20,679.29 206.75,679.84 204.05,688.11 C203.39,690.15 202.75,691.66 202.19,692.62 C202.49,692.01 202.71,691.23 202.79,690.42 C202.95,688.82 203.56,686.27 204.15,684.77 C205.41,681.57 204.47,676.68 202.71,677.26 C202.05,677.48 201.45,679.21 201.40,681.10 C201.34,682.99 200.97,686.71 200.57,689.37 C200.53,689.65 200.49,689.91 200.46,690.16 C200.49,689.83 200.53,689.48 200.58,689.11 C201.05,685.57 200.87,683.54 199.98,682.47 C198.94,681.22 198.95,680.47 200.02,678.47 C201.41,675.86 204.52,675.14 205.29,677.25 C205.66,678.25 206.01,678.25 207.07,677.25 C208.90,675.52 211.94,675.68 212.65,677.54 C213.18,678.92 213.44,678.91 215.05,677.46 C217.88,674.89 220.56,675.97 220.21,679.53 C220.05,681.16 219.82,684.90 219.70,687.83 C219.62,689.67 219.44,691.09 219.13,692.11 C219.35,690.94 219.37,688.98 219.31,685.64 ZM 466.78 323.02 L 466.78 323.02 C452.62,322.99 440.00,323.26 440.00,323.85 C440.00,324.32 441.01,325.82 442.25,327.18 C443.49,328.55 446.20,332.10 448.28,335.08 C450.36,338.06 453.35,342.35 454.94,344.62 L 457.82 348.74 L 477.16 349.46 C478.36,349.50 479.53,349.55 480.66,349.60 L 480.66 349.60 C483.32,349.78 485.74,349.91 487.57,349.94 C493.02,350.27 497.43,350.68 501.14,351.23 C495.71,350.78 487.43,350.36 479.02,350.13 L 455.54 349.50 L 450.02 341.39 C446.98,336.93 442.76,331.16 440.62,328.57 C438.44,325.92 437.13,323.48 437.62,323.01 C438.15,322.50 453.83,322.63 470.55,323.03 C469.28,323.02 468.02,323.02 466.78,323.02 ZM 431.90 694.50 C432.50,691.20 433.24,686.79 433.55,684.69 C433.86,682.60 435.00,680.00 436.08,678.92 C437.80,677.20 437.85,676.88 436.46,676.35 C435.20,675.86 435.01,674.89 435.54,671.74 C436.03,668.88 435.90,667.95 435.08,668.45 C434.46,668.83 434.04,669.68 434.15,670.33 C434.42,671.91 431.89,677.00 430.83,677.00 C430.36,677.00 430.53,677.87 431.20,678.94 C432.13,680.43 432.14,682.00 431.27,685.69 C429.70,692.35 428.72,703.91 429.90,702.00 C430.40,701.17 431.31,697.80 431.90,694.50 ZM 463.73 687.93 C463.89,684.94 464.13,681.39 464.26,680.03 C464.43,678.31 463.94,677.45 462.65,677.19 C461.07,676.87 460.90,677.25 461.46,679.83 C461.83,681.49 461.59,684.65 460.93,686.85 C460.89,686.96 460.86,687.08 460.83,687.19 C461.00,683.78 460.73,681.00 460.23,681.00 C459.38,681.00 457.47,684.42 456.09,688.19 C456.75,684.82 457.03,680.67 456.51,679.04 C455.39,675.51 453.51,677.35 453.40,682.08 C453.35,684.51 452.95,688.19 452.52,690.25 C452.13,692.11 452.24,693.37 452.63,693.87 C451.91,693.74 451.87,692.26 452.30,687.70 C452.71,683.33 452.55,681.02 451.82,680.77 C450.23,680.24 453.09,676.00 455.04,676.00 C455.90,676.00 457.14,676.54 457.80,677.20 C458.73,678.13 459.27,678.13 460.20,677.20 C461.80,675.60 464.66,675.67 465.30,677.33 C465.58,678.06 465.40,680.84 464.90,683.52 C464.22,687.15 464.31,688.57 465.25,689.16 C466.97,690.24 464.96,693.37 462.54,693.50 C463.11,692.75 463.58,690.58 463.73,687.93 ZM 408.60 687.44 C409.93,680.97 409.52,677.00 407.49,677.00 C406.65,677.00 406.23,678.31 406.27,680.75 C406.31,682.81 405.97,686.70 405.52,689.38 C405.34,690.46 405.24,691.34 405.21,692.03 C405.07,691.14 405.00,689.89 405.00,688.28 C405.00,685.05 404.47,681.87 403.82,681.22 C402.92,680.32 403.07,679.57 404.48,678.02 C406.53,675.76 409.59,675.35 410.29,677.25 C410.66,678.25 411.02,678.25 412.08,677.25 C414.36,675.09 417.00,675.73 417.00,678.43 C417.00,680.35 416.41,680.94 414.25,681.18 C411.88,681.46 411.21,682.33 409.39,687.45 C408.18,690.87 407.21,692.88 406.49,693.49 C407.16,692.53 407.97,690.45 408.60,687.44 ZM 366.87 691.28 C369.12,682.59 369.60,677.00 368.10,677.00 C366.73,677.00 364.91,682.75 363.99,690.00 C363.54,693.58 362.86,698.08 362.47,700.00 C361.08,706.99 364.63,699.97 366.87,691.28 ZM 390.18 689.76 C390.01,687.80 390.35,685.90 390.93,685.54 C391.14,685.41 391.34,685.06 391.50,684.56 C391.01,689.58 391.17,690.10 392.42,689.07 C393.25,688.38 394.22,686.85 394.57,685.66 C395.79,681.62 397.21,678.86 398.33,677.71 C397.98,678.12 397.69,678.66 397.53,679.25 C397.20,680.49 396.44,683.15 395.83,685.16 C394.63,689.20 395.44,694.35 397.19,693.77 C397.81,693.56 398.45,690.83 398.62,687.70 C398.79,684.57 399.39,681.13 399.96,680.07 C400.11,679.79 400.24,679.54 400.35,679.31 C400.38,679.97 400.35,680.78 400.24,681.75 C399.96,684.36 399.58,686.68 399.38,686.90 C399.19,687.12 399.81,687.87 400.75,688.56 C402.37,689.74 402.36,689.94 400.58,691.91 C398.48,694.23 395.41,694.67 394.71,692.75 C394.34,691.75 393.98,691.75 392.92,692.75 C391.97,693.65 390.14,694.14 388.91,693.99 C389.78,693.78 390.39,692.05 390.18,689.76 ZM 361.93 691.58 C362.87,690.46 362.74,690.10 361.30,689.82 C359.81,689.53 359.50,688.45 359.50,683.51 C359.50,678.46 359.21,677.49 357.60,677.17 C356.10,676.88 355.86,677.18 356.46,678.65 C356.88,679.67 357.15,683.31 357.06,686.75 C356.91,692.31 357.11,693.00 358.82,693.00 C359.89,693.00 361.28,692.36 361.93,691.58 ZM 323.01 690.25 C323.01,688.74 323.30,685.14 323.65,682.25 C324.21,677.55 324.08,677.00 322.39,677.00 C320.71,677.00 320.48,677.89 320.31,685.00 C320.17,691.37 320.42,693.00 321.56,693.00 C322.46,693.00 323.00,691.97 323.01,690.25 ZM 290.38 691.75 C290.56,691.06 291.43,688.34 292.32,685.69 C293.63,681.83 293.71,680.50 292.73,678.94 C290.87,675.96 289.64,677.16 289.49,682.06 C289.42,684.50 289.02,687.96 288.60,689.75 C288.09,691.92 288.21,693.00 288.95,693.00 C289.56,693.00 290.21,692.44 290.38,691.75 ZM 489.64 687.95 C491.47,681.83 491.41,677.00 489.50,677.00 C488.67,677.00 487.98,677.34 487.96,677.75 C487.66,683.43 486.98,689.50 486.45,691.16 C485.99,692.59 486.18,693.11 487.05,692.82 C487.74,692.59 488.91,690.39 489.64,687.95 ZM 279.42 693.39 C281.65,692.54 281.38,691.00 279.00,691.00 C277.39,691.00 277.00,690.33 277.00,687.56 C277.00,685.67 276.60,683.87 276.10,683.56 C274.00,682.26 273.17,690.77 275.20,692.80 C276.56,694.16 277.19,694.25 279.42,693.39 ZM 375.00 686.43 C375.00,690.17 377.22,691.47 378.39,688.42 C379.16,686.41 379.19,680.00 378.43,680.00 C376.76,680.00 375.00,683.29 375.00,686.43 ZM 243.72 685.80 C243.33,689.38 243.52,690.05 244.88,689.79 C247.04,689.38 248.82,682.42 247.18,680.78 C245.46,679.06 244.27,680.79 243.72,685.80 ZM 376.43 693.11 C376.73,692.63 376.31,691.67 375.49,690.99 C374.67,690.31 374.00,688.21 374.00,686.32 C374.00,684.43 373.61,683.12 373.13,683.42 C371.67,684.32 370.95,690.04 372.04,692.08 C373.11,694.08 375.49,694.64 376.43,693.11 ZM 236.37 685.75 C236.70,684.51 236.98,682.04 236.99,680.25 C237.00,677.66 236.59,677.00 235.00,677.00 C233.89,677.00 233.00,677.67 233.00,678.50 C233.00,679.33 233.46,680.00 234.01,680.00 C234.63,680.00 234.78,681.55 234.38,684.00 C233.70,688.29 235.31,689.71 236.37,685.75 ZM 244.43 693.11 C244.73,692.63 244.31,691.67 243.49,690.99 C242.67,690.31 242.00,688.37 242.00,686.69 C242.00,683.77 241.93,683.72 240.53,685.56 C238.61,688.10 238.63,690.48 240.57,692.43 C242.34,694.20 243.62,694.42 244.43,693.11 ZM 507.57 692.89 C507.95,692.28 507.67,691.41 506.96,690.97 C506.24,690.53 505.36,688.22 505.00,685.84 L 504.35 681.50 L 503.56 686.24 C503.13,688.84 503.04,691.66 503.36,692.49 C504.03,694.25 506.58,694.50 507.57,692.89 ZM 228.68 689.61 C229.45,691.61 230.50,691.32 231.79,688.75 C233.34,685.65 233.70,682.13 232.50,681.89 C231.13,681.61 228.02,687.89 228.68,689.61 ZM 332.57 686.25 C332.21,688.31 332.16,690.00 332.47,690.00 C333.65,690.00 336.99,683.38 337.00,681.03 C337.00,678.57 336.99,678.57 335.11,680.53 C334.08,681.61 332.93,684.19 332.57,686.25 ZM 535.59 687.49 C535.24,686.11 534.12,683.61 533.11,681.93 C530.46,677.59 529.72,680.54 532.14,685.81 C534.25,690.42 536.61,691.57 535.59,687.49 ZM 472.00 687.33 C472.00,688.34 472.55,688.98 473.23,688.76 C474.72,688.26 478.19,679.00 476.89,679.00 C475.60,679.00 472.01,685.13 472.00,687.33 ZM 329.46 707.07 C329.77,706.56 329.12,705.86 328.01,705.50 C326.91,705.15 326.00,704.22 326.00,703.43 C326.00,702.64 325.33,702.00 324.50,702.00 C322.74,702.00 322.59,703.36 324.04,706.07 C325.11,708.07 328.45,708.69 329.46,707.07 ZM 357.46 707.07 C357.77,706.56 357.17,705.87 356.12,705.54 C355.07,705.21 353.96,703.94 353.64,702.73 C353.19,701.01 352.80,700.80 351.85,701.75 C350.90,702.70 350.93,703.51 351.99,705.48 C353.33,707.98 356.35,708.86 357.46,707.07 ZM 250.81 680.22 C250.58,678.24 249.86,677.41 248.13,677.17 C245.85,676.84 245.83,676.91 247.38,679.14 C248.27,680.41 249.01,682.58 249.03,683.97 C249.06,686.19 249.19,686.29 250.09,684.72 C250.66,683.75 250.99,681.72 250.81,680.22 ZM 445.02 690.03 C444.37,688.82 444.52,687.69 445.51,686.39 C446.04,685.69 446.43,684.61 446.67,683.43 C446.55,685.93 446.81,688.32 447.32,689.13 C448.09,690.38 448.03,691.26 447.07,692.42 C445.78,693.96 444.13,694.34 443.09,693.52 C443.45,693.64 443.92,693.48 444.49,693.01 C445.53,692.15 445.68,691.27 445.02,690.03 ZM 265.00 681.50 C265.00,677.88 263.67,676.81 262.61,679.58 C261.53,682.39 261.96,685.00 263.50,685.00 C264.55,685.00 265.00,683.94 265.00,681.50 ZM 448.68 670.54 C448.87,671.11 448.46,672.34 447.76,673.27 C445.96,675.69 443.02,673.83 444.61,671.28 C445.83,669.32 448.13,668.90 448.68,670.54 ZM 284.00 679.00 C284.00,676.31 282.08,675.49 280.19,677.38 C278.70,678.87 278.71,679.00 280.29,679.00 C281.23,679.00 282.00,679.70 282.00,680.56 C282.00,681.42 282.45,681.84 283.00,681.50 C283.55,681.16 284.00,680.04 284.00,679.00 ZM 266.80 689.54 C267.95,687.01 266.94,685.30 265.00,686.50 C263.79,687.25 263.65,692.00 264.84,692.00 C265.30,692.00 266.18,690.89 266.80,689.54 ZM 215.30 705.53 C214.31,704.17 213.16,703.05 212.75,703.03 C211.27,702.97 212.03,705.92 213.75,706.92 C216.66,708.61 217.19,708.13 215.30,705.53 ZM 525.00 679.00 C525.00,677.89 524.33,677.00 523.50,677.00 C521.82,677.00 521.75,677.18 522.61,679.42 C523.46,681.65 525.00,681.38 525.00,679.00 ZM 416.00 678.43 C416.00,677.50 415.32,676.99 414.33,677.18 C411.82,677.66 411.48,680.00 413.92,680.00 C415.14,680.00 416.00,679.35 416.00,678.43 ZM 299.00 678.50 C299.00,677.67 298.33,677.00 297.50,677.00 C296.67,677.00 296.00,677.67 296.00,678.50 C296.00,679.33 296.67,680.00 297.50,680.00 C298.33,680.00 299.00,679.33 299.00,678.50 ZM 329.04 686.26 C328.25,688.99 328.25,690.59 329.00,691.99 C329.65,693.21 330.31,693.86 330.90,693.92 C329.47,694.10 328.04,693.87 327.61,693.18 C327.15,692.43 327.88,689.42 329.04,686.26 ZM 272.00 678.44 C272.00,677.65 271.55,677.00 271.00,677.00 C270.45,677.00 270.00,677.93 270.00,679.06 C270.00,680.19 270.45,680.84 271.00,680.50 C271.55,680.16 272.00,679.23 272.00,678.44 ZM 524.74 329.34 C518.48,327.10 511.58,325.25 505.76,324.36 C508.14,324.52 509.81,324.68 510.50,324.83 C514.29,325.67 519.65,327.41 524.74,329.34 ZM 448.00 670.94 C448.00,670.42 447.55,670.00 447.00,670.00 C446.45,670.00 446.00,670.70 446.00,671.56 C446.00,672.42 446.45,672.84 447.00,672.50 C447.55,672.16 448.00,671.46 448.00,670.94 ZM 520.00 682.06 C520.00,682.58 520.45,683.00 521.00,683.00 C521.55,683.00 522.00,682.30 522.00,681.44 C522.00,680.58 521.55,680.16 521.00,680.50 C520.45,680.84 520.00,681.54 520.00,682.06 ZM 546.22 393.46 C544.01,386.75 540.90,380.78 536.68,374.53 C541.43,381.55 544.15,386.66 546.22,393.46 ZM 568.59 497.52 C573.69,487.25 577.47,475.60 579.69,462.88 C577.05,478.03 572.24,491.66 565.64,503.22 C566.66,501.38 567.64,499.48 568.59,497.52 ZM 550.96 439.38 C550.98,437.76 550.98,435.99 550.98,434.05 C550.98,429.84 550.90,425.94 550.74,422.30 C550.85,423.91 550.93,425.52 551.00,427.14 C551.09,431.16 551.07,435.32 550.96,439.38 ZM 446.93 679.62 C446.82,678.15 446.43,677.04 445.74,677.00 C445.77,677.00 445.80,677.00 445.83,677.00 C446.66,677.00 446.98,677.62 446.93,679.62 ZM 390.04 677.15 C391.64,676.92 392.10,676.93 391.98,679.40 C391.88,677.30 391.48,676.97 390.04,677.15 ZM 536.68 374.53 C534.83,371.81 532.77,369.24 530.55,366.88 C531.65,368.05 532.73,369.27 533.76,370.53 C534.76,371.80 535.73,373.14 536.68,374.53 ZM 387.93 693.60 C387.93,693.59 387.92,693.59 387.92,693.58 C387.69,693.35 387.53,689.64 387.56,685.33 C387.53,689.62 387.69,693.32 387.93,693.60 ZM 388.47 677.67 C387.70,678.39 387.60,680.18 387.56,685.33 C387.61,680.15 387.68,678.38 388.47,677.67 ZM 442.37 692.53 C442.37,692.51 442.36,692.50 442.35,692.48 C442.24,692.20 442.20,691.69 442.22,691.04 C442.22,691.64 442.27,692.13 442.37,692.53 ZM 200.87 693.85 C200.96,693.84 201.06,693.82 201.17,693.78 C201.26,693.75 201.35,693.70 201.44,693.64 C201.22,693.84 201.03,693.91 200.87,693.85 ZM 443.08 678.34 C442.60,679.05 442.51,679.91 443.06,680.58 C442.50,679.89 442.59,679.04 443.08,678.34 ZM 311.75 693.37 C311.88,693.52 312.03,693.61 312.18,693.65 C312.04,693.64 311.91,693.58 311.81,693.47 C311.78,693.45 311.76,693.42 311.75,693.37 ZM 207.77 693.41 C207.82,693.48 207.88,693.53 207.94,693.57 C207.89,693.55 207.85,693.52 207.81,693.48 C207.79,693.46 207.78,693.44 207.77,693.41 Z" fill="rgb(165,168,167)"/>
<path d="M 0.00 475.50 L 0.00 0.00 L 369.50 0.00 L 739.00 0.00 L 739.00 475.50 L 739.00 951.00 L 369.50 951.00 L 0.00 951.00 L 0.00 475.50 ZM 223.05 706.11 C224.83,704.32 226.19,701.68 226.58,699.24 C227.09,696.04 227.82,695.00 230.34,693.88 C234.25,692.16 237.96,685.76 237.98,680.72 C238.00,676.47 235.96,674.92 232.87,676.85 C231.44,677.74 230.55,677.73 229.08,676.82 C226.01,674.90 223.73,677.42 224.46,681.92 C225.31,687.18 222.43,702.02 220.10,704.35 C218.20,706.24 218.14,706.23 215.45,703.54 C213.33,701.42 212.54,701.12 211.88,702.16 C210.50,704.34 210.86,705.79 213.22,707.44 C216.55,709.78 219.82,709.33 223.05,706.11 ZM 333.34 706.00 C337.56,702.30 338.57,699.76 340.04,689.00 C341.83,675.97 341.90,676.54 338.47,676.20 C336.26,675.99 334.78,676.60 333.02,678.48 C330.58,681.08 326.68,691.67 327.61,693.18 C328.39,694.43 332.44,694.16 333.88,692.75 C334.92,691.74 335.03,692.44 334.46,696.50 C333.35,704.37 329.16,707.64 326.80,702.46 C326.14,701.02 324.97,700.05 324.08,700.22 C319.99,701.01 323.09,709.00 327.49,709.00 C328.83,709.00 331.47,707.65 333.34,706.00 ZM 361.42 705.51 C365.08,701.85 366.12,699.02 368.03,687.50 C369.68,677.48 369.68,676.50 368.05,676.50 C367.21,676.50 365.72,678.80 364.53,681.92 C362.09,688.31 360.21,689.62 360.81,684.52 C361.41,679.35 360.31,676.00 358.02,676.00 C355.78,676.00 353.41,679.52 355.00,680.50 C355.55,680.84 356.01,683.45 356.02,686.31 C356.03,692.54 357.05,694.48 359.90,693.74 C361.60,693.29 362.00,693.64 362.00,695.55 C362.00,698.24 360.04,703.14 358.52,704.23 C356.80,705.47 356.00,705.10 354.82,702.50 C353.16,698.87 351.00,699.32 351.00,703.30 C351.00,709.88 355.99,710.94 361.42,705.51 ZM 428.34 706.74 C429.68,705.50 431.24,702.68 431.80,700.49 C433.21,695.01 435.00,684.82 435.00,682.31 C435.00,681.17 436.01,679.55 437.25,678.71 C439.31,677.30 439.36,677.06 437.85,675.84 C435.35,673.82 436.57,668.37 440.12,665.75 C444.58,662.46 443.67,659.50 438.97,662.02 C436.80,663.18 432.00,670.89 432.00,673.22 C432.00,674.06 430.99,675.47 429.75,676.35 C427.68,677.82 427.63,678.05 429.18,679.28 C430.64,680.44 430.73,681.51 429.88,687.56 C429.35,691.38 428.65,696.39 428.33,698.71 C427.84,702.27 424.70,707.07 423.40,706.25 C422.25,705.53 421.00,706.18 421.00,707.50 C421.00,709.80 425.54,709.33 428.34,706.74 ZM 219.70 687.83 C219.82,684.90 220.05,681.16 220.21,679.53 C220.56,675.97 217.88,674.89 215.05,677.46 C213.44,678.91 213.18,678.92 212.65,677.54 C211.94,675.68 208.90,675.52 207.07,677.25 C206.01,678.25 205.66,678.25 205.29,677.25 C204.52,675.14 201.41,675.86 200.02,678.47 C198.95,680.47 198.94,681.22 199.98,682.47 C200.87,683.54 201.05,685.57 200.58,689.11 C199.68,695.89 201.71,695.31 204.05,688.11 C206.75,679.84 208.20,679.29 207.71,686.73 C207.49,690.16 207.53,693.20 207.81,693.48 C208.65,694.32 211.00,691.87 211.03,690.13 C211.04,689.23 211.95,686.70 213.04,684.50 L 215.02 680.50 L 214.54 686.58 C214.03,693.14 215.13,695.59 217.90,694.04 C218.98,693.43 219.55,691.47 219.70,687.83 ZM 245.08 693.96 C247.59,692.62 252.00,685.64 252.00,683.02 C252.00,679.81 253.97,680.67 255.61,684.60 C256.50,686.75 256.86,689.38 256.48,691.10 C255.53,695.40 258.20,694.84 260.55,690.25 L 262.46 686.50 L 262.79 690.25 C263.20,694.86 264.43,695.01 266.96,690.75 C268.01,688.96 269.25,687.05 269.69,686.50 C271.62,684.11 273.17,680.12 272.83,678.38 C272.25,675.35 269.70,676.22 268.78,679.75 C267.73,683.83 266.00,683.98 266.00,680.00 C266.00,675.97 263.20,676.00 261.68,680.04 L 260.53 683.07 L 259.43 679.79 C258.09,675.79 254.54,674.74 253.49,678.03 L 252.81 680.17 L 251.35 678.09 C247.21,672.18 239.00,679.78 239.00,689.52 C239.00,691.68 239.63,693.27 240.75,693.92 C242.95,695.20 242.76,695.20 245.08,693.96 ZM 282.25 692.23 C283.90,690.78 284.68,688.00 283.43,688.00 C283.12,688.00 281.99,688.47 280.91,689.05 C276.94,691.17 276.95,688.73 280.94,685.32 C283.64,683.01 285.00,681.02 285.00,679.39 C285.00,673.95 277.86,675.80 274.80,682.03 C270.24,691.32 275.34,698.29 282.25,692.23 ZM 325.03 691.95 C326.36,689.46 326.26,689.00 324.39,689.00 C323.26,689.00 323.00,688.49 323.50,687.25 C323.90,686.29 324.45,683.60 324.74,681.27 C325.16,677.85 324.92,676.91 323.50,676.36 C322.53,675.99 320.80,676.27 319.66,676.98 C318.17,677.91 317.49,677.96 317.21,677.14 C316.58,675.24 313.21,675.86 311.59,678.18 C310.45,679.80 310.34,680.71 311.16,681.69 C311.79,682.45 312.05,685.12 311.78,687.99 C311.51,690.72 311.53,693.19 311.81,693.47 C312.68,694.35 315.00,691.84 315.00,690.03 C315.00,687.93 317.73,682.29 319.18,681.39 C319.90,680.95 320.00,682.71 319.50,686.99 C318.96,691.62 319.11,693.45 320.05,694.03 C321.73,695.07 323.83,694.19 325.03,691.95 ZM 383.39 683.94 C385.07,673.44 376.89,673.27 371.62,683.70 C368.72,689.44 369.72,693.13 374.50,694.26 C377.43,694.95 382.59,688.96 383.39,683.94 ZM 500.27 691.50 C500.74,690.88 501.43,691.17 502.07,692.25 C504.42,696.25 513.21,692.57 511.55,688.29 C510.89,686.59 510.79,686.59 509.57,688.25 C507.56,690.98 506.00,690.32 506.00,686.72 C506.00,682.43 508.55,678.82 511.32,679.20 C512.70,679.40 513.57,678.89 513.80,677.75 C514.07,676.39 513.47,676.00 511.12,676.00 C507.69,676.00 504.14,679.93 501.94,686.20 C500.04,691.58 498.66,689.73 499.44,682.86 C500.00,677.88 499.84,676.88 498.42,676.33 C497.49,675.98 495.84,676.24 494.75,676.92 C493.33,677.81 492.46,677.86 491.68,677.08 C489.93,675.33 488.16,675.83 486.35,678.59 C485.01,680.63 484.93,681.34 485.94,681.96 C486.95,682.59 486.98,683.85 486.09,688.02 C484.86,693.76 485.23,694.98 487.71,693.41 C488.91,692.65 492.67,683.97 492.97,681.25 C492.99,681.11 493.45,681.00 494.01,681.00 C494.64,681.00 494.78,683.04 494.37,686.48 C493.42,694.56 496.14,696.87 500.27,691.50 ZM 522.76 692.76 C524.98,690.67 525.22,690.64 526.12,692.26 C527.38,694.50 532.73,694.55 535.17,692.35 C537.56,690.19 537.49,686.90 535.00,683.73 C532.25,680.24 532.48,678.87 535.75,679.21 C537.66,679.41 538.50,679.04 538.50,678.00 C538.50,677.04 537.34,676.39 535.31,676.19 C532.79,675.95 531.77,676.43 530.40,678.51 C528.76,681.01 528.78,681.31 530.78,685.26 C533.09,689.81 532.84,691.52 530.07,690.04 C529.08,689.51 527.99,689.34 527.66,689.68 C527.32,690.01 526.40,689.75 525.60,689.09 C524.47,688.15 523.71,688.16 522.12,689.15 C518.40,691.48 518.58,689.02 522.39,685.54 C525.31,682.86 526.07,681.48 525.82,679.30 C524.98,672.01 515.00,679.15 515.00,687.03 C515.00,689.67 515.67,691.67 517.00,693.00 C519.51,695.51 519.84,695.50 522.76,692.76 ZM 192.75 692.25 C193.02,691.43 192.11,691.00 190.14,691.00 C188.48,691.00 186.89,690.62 186.60,690.16 C185.56,688.48 187.67,683.50 189.57,683.14 C192.20,682.65 194.11,680.98 193.38,679.80 C193.05,679.26 191.95,679.04 190.95,679.30 C188.68,679.90 187.90,678.03 188.88,674.33 C189.49,672.02 190.26,671.44 193.07,671.18 C200.03,670.53 198.42,669.00 190.76,669.00 C183.50,669.00 179.46,670.52 183.74,671.64 C185.60,672.13 185.63,672.48 184.33,680.32 C183.59,684.82 182.53,689.31 181.96,690.29 C181.40,691.28 181.21,692.54 181.56,693.09 C182.44,694.52 192.25,693.78 192.75,692.25 ZM 291.02 692.00 C291.42,691.17 292.42,688.47 293.24,686.00 C294.58,681.97 295.04,681.52 297.58,681.72 C299.14,681.84 300.77,681.39 301.20,680.72 C301.62,680.05 301.98,682.80 301.98,686.82 C302.00,693.25 302.21,694.11 303.75,693.81 C305.17,693.54 305.64,691.95 306.22,685.51 C307.00,676.94 306.25,674.72 303.23,676.63 C301.99,677.41 301.02,677.40 299.76,676.62 C298.44,675.79 297.45,675.87 295.80,676.90 C294.23,677.88 293.48,677.94 293.21,677.14 C292.67,675.51 289.47,675.73 288.00,677.50 C287.03,678.66 287.02,679.32 287.95,680.44 C288.68,681.32 288.89,683.16 288.49,685.19 C286.65,694.53 286.65,694.21 288.51,693.85 C289.49,693.66 290.61,692.83 291.02,692.00 ZM 392.92 692.75 C393.98,691.75 394.34,691.75 394.71,692.75 C395.41,694.67 398.48,694.23 400.58,691.91 C402.36,689.94 402.37,689.74 400.75,688.56 C399.81,687.87 399.19,687.12 399.38,686.90 C399.58,686.68 399.96,684.36 400.24,681.75 C401.08,673.94 397.32,676.53 394.57,685.66 C394.22,686.85 393.25,688.38 392.42,689.07 C391.09,690.17 390.99,689.51 391.60,683.57 C392.29,676.91 392.26,676.83 389.96,677.16 C387.75,677.48 387.62,677.91 387.56,685.33 C387.53,689.64 387.69,693.35 387.92,693.58 C388.77,694.44 391.64,693.96 392.92,692.75 ZM 409.39 687.45 C411.21,682.33 411.88,681.46 414.25,681.18 C416.41,680.94 417.00,680.35 417.00,678.43 C417.00,675.73 414.36,675.09 412.08,677.25 C411.02,678.25 410.66,678.25 410.29,677.25 C409.59,675.35 406.53,675.76 404.48,678.02 C403.07,679.57 402.92,680.32 403.82,681.22 C404.47,681.87 405.00,685.05 405.00,688.28 C405.00,695.76 406.56,695.47 409.39,687.45 ZM 447.07 692.42 C448.03,691.26 448.09,690.38 447.32,689.13 C446.73,688.19 446.48,685.11 446.75,682.22 C447.15,678.13 446.95,677.00 445.83,677.00 C443.55,677.00 441.88,679.15 443.06,680.58 C443.75,681.41 443.71,683.27 442.93,686.38 C442.29,688.90 442.03,691.65 442.35,692.48 C443.11,694.45 445.40,694.42 447.07,692.42 ZM 455.36 690.42 C456.69,685.89 459.22,681.00 460.23,681.00 C460.74,681.00 461.00,683.81 460.83,687.25 C460.53,692.83 460.70,693.50 462.39,693.50 C464.88,693.50 467.01,690.26 465.25,689.16 C464.31,688.57 464.22,687.15 464.90,683.52 C465.40,680.84 465.58,678.06 465.30,677.33 C464.66,675.67 461.80,675.60 460.20,677.20 C459.27,678.13 458.73,678.13 457.80,677.20 C457.14,676.54 455.90,676.00 455.04,676.00 C453.09,676.00 450.23,680.24 451.82,680.77 C452.55,681.02 452.71,683.33 452.30,687.70 C451.80,693.09 451.94,694.19 453.09,693.80 C453.87,693.55 454.89,692.02 455.36,690.42 ZM 474.42 692.75 C474.88,691.75 475.12,691.75 475.58,692.75 C476.50,694.72 480.39,694.21 481.82,691.92 C482.83,690.30 482.85,689.52 481.92,688.40 C481.15,687.48 480.94,685.19 481.31,681.99 C481.87,677.29 481.76,676.98 479.38,676.38 C475.59,675.43 472.41,677.69 469.39,683.45 C465.94,690.04 466.52,694.00 470.94,694.00 C472.53,694.00 474.10,693.44 474.42,692.75 ZM 448.68 670.54 C448.13,668.90 445.83,669.32 444.61,671.28 C443.02,673.83 445.96,675.69 447.76,673.27 C448.46,672.34 448.87,671.11 448.68,670.54 ZM 307.82 671.67 C308.01,670.68 307.50,670.00 306.57,670.00 C305.65,670.00 305.00,670.85 305.00,672.08 C305.00,674.52 307.34,674.18 307.82,671.67 ZM 240.67 642.92 C244.60,641.02 245.11,640.97 246.56,642.42 C248.25,644.11 253.52,644.58 254.42,643.13 C255.45,641.47 255.19,596.79 254.15,595.75 C253.59,595.19 251.59,595.04 249.57,595.42 L 246.00 596.09 L 246.00 603.88 C246.00,608.16 245.71,611.95 245.37,612.30 C245.02,612.65 243.61,612.05 242.23,610.97 C239.23,608.61 233.11,608.38 229.05,610.47 C218.66,615.85 220.29,640.72 231.24,643.88 C235.88,645.22 235.92,645.21 240.67,642.92 ZM 435.16 643.41 C437.37,642.28 438.53,642.13 439.31,642.91 C439.91,643.51 442.55,644.00 445.18,644.00 C449.38,644.00 450.03,643.71 450.56,641.63 C451.36,638.41 450.68,610.34 449.78,609.44 C448.50,608.17 441.18,608.07 440.18,609.31 C439.65,609.96 439.05,615.28 438.84,621.12 C438.45,631.92 437.43,635.00 434.21,635.00 C433.35,635.00 431.83,634.26 430.83,633.35 C429.26,631.93 429.00,630.07 429.00,620.35 C429.00,611.98 428.67,608.98 427.75,608.91 C427.06,608.87 425.05,608.72 423.27,608.59 C417.72,608.18 417.50,608.73 417.54,622.72 C417.59,637.27 418.86,641.16 424.31,643.54 C428.53,645.37 431.45,645.34 435.16,643.41 ZM 145.13 642.58 C150.29,640.41 156.00,633.57 156.00,629.57 C156.00,628.41 154.97,628.00 152.12,628.00 C148.89,628.00 147.81,628.56 145.67,631.36 C142.55,635.45 138.11,636.63 133.95,634.47 C126.16,630.44 125.08,614.47 132.20,608.49 C136.69,604.71 140.54,605.17 145.00,610.00 C148.01,613.26 149.37,614.00 152.35,614.00 C154.97,614.00 156.00,613.57 156.00,612.46 C156.00,609.74 152.05,603.08 149.41,601.35 C145.82,599.00 136.72,597.73 132.17,598.95 C127.56,600.20 120.33,607.37 118.99,612.04 C117.73,616.43 117.71,627.11 118.96,630.38 C120.35,634.04 126.87,640.93 130.43,642.49 C134.52,644.29 140.98,644.33 145.13,642.58 ZM 173.00 632.80 C173.30,626.46 173.99,621.61 174.70,620.90 C175.36,620.24 177.61,619.43 179.70,619.09 C183.34,618.50 183.51,618.30 183.81,614.24 C184.09,610.31 183.94,610.00 181.62,610.00 C180.25,610.00 178.00,610.43 176.62,610.95 C174.82,611.64 173.29,611.49 171.18,610.44 C168.20,608.96 165.52,608.92 163.25,610.34 C162.34,610.91 162.00,615.36 162.00,626.89 C162.00,635.57 162.32,642.99 162.71,643.38 C163.10,643.77 165.47,643.96 167.96,643.80 L 172.50 643.50 L 173.00 632.80 ZM 207.68 642.94 C211.44,641.52 216.00,637.06 216.00,634.81 C216.00,633.38 215.22,633.01 212.25,633.03 C210.19,633.05 207.63,633.72 206.56,634.53 C202.61,637.52 196.00,635.21 196.00,630.85 C196.00,629.18 196.94,629.00 205.88,629.00 C218.27,629.00 219.10,628.34 216.63,620.51 C214.69,614.33 210.74,610.42 205.44,609.42 C193.08,607.10 183.91,618.02 186.97,631.42 C189.17,641.06 198.67,646.34 207.68,642.94 ZM 273.78 627.63 C273.93,618.61 273.64,611.27 273.10,610.62 C272.55,609.95 270.23,609.63 267.57,609.84 L 263.00 610.20 L 263.00 626.43 C263.00,635.36 263.32,642.99 263.71,643.38 C264.10,643.77 266.47,643.96 268.96,643.80 L 273.50 643.50 L 273.78 627.63 ZM 301.50 640.01 C301.50,636.91 301.16,636.46 298.50,636.00 L 295.50 635.49 L 295.21 626.81 L 294.92 618.13 L 298.21 617.82 C301.22,617.53 301.53,617.18 301.81,613.75 C302.02,611.21 301.70,609.96 300.81,609.88 C300.09,609.82 299.05,609.66 298.50,609.54 C297.95,609.41 296.94,609.24 296.25,609.15 C295.44,609.05 295.00,607.25 295.00,604.00 L 295.00 599.00 L 289.55 599.00 L 284.11 599.00 L 283.80 603.75 C283.56,607.59 283.06,608.69 281.21,609.50 C279.34,610.31 278.97,611.16 279.21,614.00 C279.43,616.71 279.99,617.57 281.66,617.81 C283.69,618.10 283.84,618.74 284.16,628.48 C284.47,637.87 284.73,639.09 286.96,641.46 C289.17,643.81 290.05,644.05 295.46,643.79 L 301.50 643.50 L 301.50 640.01 ZM 345.13 642.59 C350.76,640.23 353.27,636.73 353.79,630.55 C354.20,625.54 353.99,624.84 351.29,622.13 C349.66,620.51 346.35,618.66 343.92,618.02 C336.44,616.06 332.53,613.74 332.16,611.06 C331.39,605.66 338.65,604.26 342.81,609.00 C345.67,612.26 350.82,613.12 352.84,610.69 C354.26,608.98 351.48,603.35 348.00,600.86 C345.03,598.74 336.36,597.79 331.70,599.07 C326.72,600.45 322.86,605.02 322.27,610.26 C321.84,614.13 322.16,615.11 324.84,618.16 C326.68,620.26 329.60,622.15 332.20,622.93 C343.38,626.25 343.48,626.32 343.80,630.17 C344.07,633.33 343.77,633.89 341.30,634.75 C337.76,635.98 334.60,634.84 332.44,631.55 C331.21,629.67 329.91,629.00 327.47,629.00 C320.22,629.00 319.50,630.63 324.01,636.85 C328.80,643.46 337.44,645.81 345.13,642.59 ZM 383.01 641.75 C389.05,637.64 390.44,634.77 390.44,626.50 C390.44,620.56 390.03,618.51 388.38,616.29 C380.19,605.24 365.04,607.09 360.04,619.76 C358.53,623.57 359.04,631.23 361.08,635.47 C364.77,643.12 376.18,646.40 383.01,641.75 ZM 413.82 640.69 C414.12,638.06 412.63,634.96 411.15,635.15 C408.19,635.54 408.04,634.65 407.77,615.25 L 407.50 595.50 L 402.09 595.19 C398.68,595.00 396.42,595.32 395.95,596.08 C395.54,596.74 395.35,606.16 395.51,617.03 C395.90,642.40 396.70,644.18 407.50,643.74 C413.27,643.51 413.51,643.39 413.82,640.69 ZM 475.84 643.12 C478.36,641.52 476.75,637.83 473.00,636.63 L 469.50 635.50 L 469.50 626.50 L 469.50 617.50 L 473.00 617.00 C476.11,616.56 476.50,616.17 476.50,613.50 C476.50,610.91 476.09,610.45 473.50,610.16 C469.77,609.74 469.03,608.61 469.02,603.25 L 469.00 599.00 L 464.55 599.00 L 460.10 599.00 L 459.80 604.24 C459.55,608.57 459.15,609.54 457.50,609.84 C454.49,610.37 453.68,611.58 454.39,614.43 C454.80,616.05 455.73,617.00 456.91,617.00 C459.50,617.00 460.00,618.87 460.00,628.65 C460.00,638.05 460.77,640.27 464.78,642.44 C467.78,644.07 473.75,644.44 475.84,643.12 ZM 494.50 627.03 L 494.50 610.56 L 490.11 609.81 C487.69,609.39 485.33,609.30 484.86,609.59 C483.83,610.22 483.69,642.36 484.71,643.38 C485.10,643.77 487.47,643.96 489.96,643.80 L 494.50 643.50 L 494.50 627.03 ZM 524.00 642.25 C533.64,637.43 534.88,618.31 525.99,611.80 C522.21,609.04 514.13,608.38 509.93,610.49 C501.95,614.51 498.26,623.60 501.16,632.10 C504.65,642.33 514.80,646.84 524.00,642.25 ZM 548.78 632.06 C548.94,625.73 549.55,620.04 550.16,619.31 C551.68,617.47 556.49,617.68 558.13,619.65 C559.03,620.73 559.67,625.10 560.00,632.40 L 560.50 643.50 L 563.82 643.82 C569.59,644.37 570.02,643.28 569.36,629.65 C569.01,622.44 568.19,616.24 567.34,614.39 C564.79,608.87 558.09,607.43 552.06,611.10 C548.88,613.04 548.53,613.07 547.40,611.53 C546.54,610.36 545.04,609.96 542.34,610.18 L 538.50 610.50 L 538.22 625.87 C537.91,643.45 538.19,644.26 544.41,643.80 L 548.50 643.50 L 548.78 632.06 ZM 593.68 642.93 C598.77,641.01 601.00,638.08 601.00,633.33 C601.00,628.17 598.87,625.61 593.31,624.07 C591.22,623.49 589.01,623.01 588.40,623.01 C586.56,623.00 583.72,619.17 584.35,617.54 C585.18,615.36 589.36,615.63 591.50,618.00 C594.69,621.52 600.45,620.13 599.84,615.99 C599.25,612.04 594.62,609.50 587.99,609.50 C582.87,609.50 581.74,609.87 579.07,612.44 C576.59,614.81 576.00,616.19 576.00,619.61 C576.00,625.45 578.16,627.05 590.75,630.59 C591.44,630.78 592.00,632.02 592.00,633.35 C592.00,636.59 588.75,637.37 585.60,634.90 C582.30,632.30 575.00,632.24 575.00,634.81 C575.00,636.67 578.92,640.86 582.50,642.84 C585.07,644.25 590.09,644.30 593.68,642.93 ZM 272.17 602.35 C275.70,599.15 273.22,593.00 268.42,593.00 C263.63,593.00 261.36,598.53 264.65,602.17 C266.71,604.45 269.77,604.52 272.17,602.35 ZM 492.75 601.72 C494.34,600.49 494.37,596.77 492.80,595.20 C492.14,594.54 490.43,594.00 489.00,594.00 C485.81,594.00 484.00,595.68 484.00,598.64 C484.00,602.89 488.98,604.64 492.75,601.72 ZM 189.00 508.84 L 189.00 469.69 L 207.14 452.09 C217.11,442.42 225.64,434.36 226.08,434.19 C226.53,434.01 227.93,435.43 229.19,437.33 C231.64,441.00 244.09,458.69 258.07,478.34 C262.71,484.86 267.17,491.23 268.00,492.51 C269.98,495.56 275.08,502.84 285.52,517.50 C290.22,524.10 296.15,532.65 298.70,536.50 C306.96,548.99 304.64,548.00 325.62,548.00 C335.66,548.00 344.09,547.66 344.35,547.24 C345.20,545.87 345.15,545.79 310.50,498.93 C306.10,492.97 300.70,485.56 298.50,482.44 C296.30,479.33 293.04,474.92 291.26,472.64 C288.51,469.13 278.38,455.39 266.83,439.50 C265.23,437.30 260.30,430.67 255.87,424.77 L 247.82 414.05 L 249.69 411.77 C251.70,409.34 275.41,386.11 315.25,347.55 C328.86,334.37 340.00,323.01 340.00,322.30 C340.00,321.28 335.93,321.00 321.25,321.00 L 302.50 321.00 L 247.00 376.49 C216.48,407.00 190.94,431.98 190.26,431.99 C189.29,432.00 188.96,419.95 188.76,376.75 L 188.50 321.50 L 176.00 321.21 C169.12,321.05 162.49,321.17 161.25,321.48 L 159.00 322.04 L 159.00 433.82 C159.00,519.43 159.28,545.88 160.20,546.80 C161.02,547.62 165.80,548.00 175.20,548.00 L 189.00 548.00 L 189.00 508.84 ZM 383.88 546.90 C402.57,543.79 418.36,537.08 427.34,528.42 C435.87,520.20 443.07,506.44 444.97,494.73 C448.54,472.74 443.62,455.27 430.10,441.98 C426.46,438.39 421.90,434.72 419.99,433.83 C418.07,432.94 414.36,431.25 411.75,430.08 C409.14,428.91 407.00,427.59 407.00,427.14 C407.00,426.70 409.14,424.82 411.75,422.97 C425.03,413.54 431.89,402.43 436.56,382.77 C437.72,377.87 432.49,359.92 427.33,351.12 C417.22,333.87 396.38,323.04 373.25,323.01 C370.36,323.00 368.00,322.55 368.00,322.00 C368.00,320.74 360.46,320.69 358.13,321.93 C356.20,322.96 346.17,337.48 343.46,343.16 C340.29,349.80 340.77,350.00 360.22,350.02 C379.72,350.03 386.85,351.24 393.10,355.57 C403.96,363.09 408.61,379.06 404.36,394.22 C401.96,402.77 394.50,410.15 385.41,412.95 C375.79,415.93 364.19,416.98 341.00,417.00 L 320.50 417.01 L 314.25 422.58 C310.81,425.65 308.00,428.72 308.00,429.41 C308.00,430.10 310.49,433.41 313.53,436.77 L 319.06 442.88 L 345.78 443.29 C375.15,443.74 386.90,444.98 394.55,448.43 C400.06,450.91 405.85,455.58 409.12,460.17 C415.30,468.84 416.96,484.93 412.84,496.22 C410.37,502.98 403.57,511.16 398.11,513.93 C388.49,518.82 385.15,519.43 365.01,519.97 C348.74,520.41 345.48,520.75 345.28,522.00 C344.89,524.41 361.04,544.26 365.01,546.25 C369.04,548.27 374.53,548.46 383.88,546.90 ZM 496.50 546.90 C498.70,546.32 502.30,545.46 504.50,544.99 C519.19,541.83 523.48,540.50 531.50,536.58 C556.05,524.61 573.60,497.76 579.69,462.88 C581.95,449.97 581.94,415.94 579.68,403.80 C573.92,372.81 558.64,347.90 537.57,335.13 C532.19,331.87 518.15,326.53 510.50,324.83 C505.03,323.62 438.72,321.96 437.62,323.01 C437.13,323.48 438.44,325.92 440.62,328.57 C442.76,331.16 446.98,336.93 450.02,341.39 L 455.54 349.50 L 479.02 350.13 C491.93,350.48 504.52,351.29 507.00,351.94 C517.84,354.77 529.09,363.34 536.68,374.53 C547.52,390.53 550.95,404.81 550.98,434.05 C551.00,448.89 550.62,453.37 548.56,463.14 C546.23,474.11 543.45,482.91 541.95,484.00 C541.58,484.27 540.25,486.51 539.00,488.97 C532.99,500.83 523.56,509.55 512.21,513.77 C501.43,517.77 498.55,518.19 477.78,518.86 C455.07,519.60 456.55,518.97 450.55,530.40 C448.56,534.20 445.51,539.09 443.78,541.28 C438.70,547.70 439.83,548.00 468.44,547.98 C481.98,547.96 494.25,547.49 496.50,546.90 ZM 228.68 689.61 C228.02,687.89 231.13,681.61 232.50,681.89 C233.70,682.13 233.34,685.65 231.79,688.75 C230.50,691.32 229.45,691.61 228.68,689.61 ZM 332.57 686.25 C332.93,684.19 334.08,681.61 335.11,680.53 C336.99,678.57 337.00,678.57 337.00,681.03 C336.99,683.38 333.65,690.00 332.47,690.00 C332.16,690.00 332.21,688.31 332.57,686.25 ZM 243.72 685.80 C244.27,680.79 245.46,679.06 247.18,680.78 C248.82,682.42 247.04,689.38 244.88,689.79 C243.52,690.05 243.33,689.38 243.72,685.80 ZM 375.00 686.43 C375.00,683.29 376.76,680.00 378.43,680.00 C379.19,680.00 379.16,686.41 378.39,688.42 C377.22,691.47 375.00,690.17 375.00,686.43 ZM 520.00 682.06 C520.00,681.54 520.45,680.84 521.00,680.50 C521.55,680.16 522.00,680.58 522.00,681.44 C522.00,682.30 521.55,683.00 521.00,683.00 C520.45,683.00 520.00,682.58 520.00,682.06 ZM 472.00 687.33 C472.01,685.13 475.60,679.00 476.89,679.00 C478.19,679.00 474.72,688.26 473.23,688.76 C472.55,688.98 472.00,688.34 472.00,687.33 ZM 234.07 633.37 C229.56,627.63 232.71,617.00 238.92,617.00 C243.02,617.00 245.34,620.17 245.43,625.87 C245.53,632.65 243.54,636.00 239.40,636.00 C237.07,636.00 235.55,635.25 234.07,633.37 ZM 196.00 621.15 C196.00,620.14 196.82,618.57 197.83,617.65 C201.50,614.33 208.00,616.52 208.00,621.07 C208.00,622.76 207.26,623.00 202.00,623.00 C196.83,623.00 196.00,622.74 196.00,621.15 ZM 370.54 634.04 C367.95,631.18 367.87,621.92 370.40,619.11 C375.02,614.00 381.50,618.32 381.50,626.50 C381.50,634.55 375.03,639.00 370.54,634.04 ZM 511.97 633.25 C510.18,630.98 509.88,629.55 510.25,625.10 C510.74,619.09 512.53,617.00 517.17,617.00 C521.10,617.00 523.38,621.64 522.74,628.33 C522.00,636.10 516.28,638.71 511.97,633.25 Z" fill="rgb(243,242,238)"/>
</g>
</svg>